<svg xmlns="http://www.w3.org/2000/svg" xmlns:xlink="http://www.w3.org/1999/xlink" width="500" zoomAndPan="magnify" viewBox="0 0 375 374.999991" height="500" preserveAspectRatio="xMidYMid meet" version="1.0"><defs><clipPath id="10898a5745"><path d="M 59 38.484375 L 308 38.484375 L 308 284 L 59 284 Z M 59 38.484375 " clip-rule="nonzero"/></clipPath><clipPath id="9673419f54"><path d="M 72 163 L 154 163 L 154 336.234375 L 72 336.234375 Z M 72 163 " clip-rule="nonzero"/></clipPath></defs><path fill="#232323" d="M 306.792969 176.285156 L 238.257812 187.074219 C 241.269531 186.605469 247.382812 198.535156 249.042969 200.648438 C 255.039062 208.285156 263.597656 215.863281 267.769531 224.664062 C 264.226562 226.191406 257.253906 223.445312 253.578125 222.417969 C 248.589844 221.027344 243.6875 219.332031 238.652344 218.105469 L 213.863281 212.054688 C 212.042969 223.246094 213.039062 235.675781 212.644531 247.019531 C 212.242188 258.433594 213.730469 272.015625 211.195312 283.085938 C 204.414062 273.84375 200.035156 261.207031 194.871094 250.910156 L 178.894531 219.046875 C 178.792969 218.84375 178.6875 218.636719 178.582031 218.429688 C 170.609375 226.910156 162.753906 235.496094 154.800781 244.003906 C 147.332031 251.976562 139.710938 262.128906 130.8125 268.445312 C 131.835938 257.316406 135.71875 246.78125 138.429688 236.015625 C 139.316406 232.5 143.734375 204.148438 145.851562 203.816406 L 82.757812 213.734375 L 128.125 173.71875 C 126.582031 175.082031 103.785156 162.902344 101.5625 161.917969 C 94.640625 158.851562 87.664062 155.921875 80.71875 152.917969 C 74.144531 150.074219 65.484375 147.585938 59.894531 143.152344 C 69.589844 139.714844 82.449219 141.898438 92.660156 141.445312 L 130.398438 139.742188 L 132.257812 139.660156 C 130.554688 139.734375 122.296875 120.542969 121.382812 118.777344 C 120.558594 113.703125 116.828125 109.117188 114.222656 104.800781 C 110.867188 99.234375 107.765625 93.527344 104.914062 87.683594 C 104.675781 87.203125 104.613281 86.820312 104.976562 86.40625 C 115.023438 88.679688 124.125 96.75 133.050781 101.667969 C 134.875 102.691406 156.871094 113.160156 156.636719 114.675781 L 167.476562 43.675781 C 167.707031 42.179688 167.875 40.574219 168.335938 39.214844 C 171.804688 45.152344 173.335938 53.339844 175.5625 59.910156 C 180.335938 68.996094 182.546875 80.554688 185.84375 90.3125 C 187.707031 95.820312 188.675781 103.433594 192.085938 108.125 C 200.269531 101.859375 207.859375 94.753906 215.714844 88.070312 L 233.335938 73.066406 C 234.386719 72.175781 242.929688 63.46875 244.140625 63.894531 L 244.371094 63.894531 C 242.890625 76.222656 236.03125 89.277344 232.058594 101.027344 L 226.863281 116.429688 C 226.121094 118.636719 225.890625 121.023438 224.660156 123.035156 C 235.125 119.796875 245.714844 116.957031 256.367188 114.335938 C 266.375 111.871094 277.78125 107.640625 288.050781 107.234375 C 286.183594 112.636719 279.308594 117.890625 275.128906 121.714844 C 270.359375 126.066406 265.394531 130.195312 260.820312 134.722656 C 259.242188 136.289062 244.167969 153.675781 242.375 153.027344 Z M 306.792969 176.285156 " fill-opacity="1" fill-rule="nonzero"/><g clip-path="url(#10898a5745)"><path fill="#232323" d="M 306.617188 175.648438 L 283.433594 179.300781 L 246.605469 185.097656 L 238.070312 186.453125 C 237.34375 186.566406 237.507812 187.820312 238.246094 187.742188 C 239.339844 187.652344 240.339844 188.972656 240.972656 189.703125 C 242.042969 190.976562 243.015625 192.320312 243.894531 193.726562 C 245.4375 196.09375 246.738281 198.664062 248.417969 200.941406 C 254.488281 209.148438 262.660156 215.667969 267.171875 225.007812 L 267.5625 224.042969 C 264.234375 225.324219 260.097656 223.753906 256.878906 222.761719 C 252.632812 221.453125 248.375 220.175781 244.105469 218.929688 C 234.214844 216.015625 224.03125 213.878906 214.007812 211.429688 C 213.832031 211.382812 213.664062 211.402344 213.507812 211.492188 C 213.351562 211.582031 213.246094 211.714844 213.199219 211.886719 C 211.324219 223.769531 212.253906 235.894531 211.929688 247.871094 C 211.617188 259.527344 213.082031 271.429688 210.53125 282.917969 L 211.730469 282.757812 C 205.113281 273.636719 201.316406 262.878906 196.488281 252.789062 C 190.914062 241.132812 184.941406 229.644531 179.121094 218.109375 C 179.070312 218.023438 179 217.953125 178.917969 217.898438 C 178.832031 217.84375 178.742188 217.808594 178.640625 217.796875 C 178.542969 217.78125 178.445312 217.792969 178.351562 217.824219 C 178.253906 217.855469 178.171875 217.90625 178.097656 217.972656 C 169.691406 226.921875 161.28125 235.882812 153.007812 244.953125 C 145.800781 252.847656 139.210938 261.585938 130.457031 267.875 L 131.445312 268.441406 C 132.601562 256.429688 137.367188 245.335938 139.574219 233.566406 C 140.941406 226.289062 142.136719 218.972656 143.785156 211.746094 C 144.171875 210.039062 144.570312 208.363281 145.089844 206.707031 C 145.25 206.144531 145.449219 205.59375 145.683594 205.058594 C 145.785156 204.84375 146.113281 204.40625 146.007812 204.433594 C 146.84375 204.21875 146.46875 203.039062 145.664062 203.167969 L 124.390625 206.519531 L 90.441406 211.867188 L 82.582031 213.105469 L 83.222656 214.203125 L 98.507812 200.71875 L 122.925781 179.183594 L 128.59375 174.179688 C 129.144531 173.691406 128.40625 172.710938 127.796875 173.15625 C 127.496094 173.375 126.019531 172.785156 125.542969 172.621094 C 123.875 172.042969 122.25 171.324219 120.636719 170.574219 C 116.800781 168.84375 113.035156 166.964844 109.277344 165.066406 C 99.898438 160.328125 90.261719 156.25 80.585938 152.140625 C 73.769531 149.25 66.289062 147.261719 60.359375 142.671875 L 60.066406 143.773438 C 70.605469 140.15625 82.117188 142.542969 92.996094 142.066406 C 106.085938 141.5 119.171875 140.917969 132.257812 140.316406 C 132.441406 140.316406 132.59375 140.25 132.722656 140.121094 C 132.851562 139.992188 132.917969 139.839844 132.917969 139.65625 C 132.917969 139.476562 132.851562 139.320312 132.722656 139.191406 C 132.59375 139.0625 132.441406 139 132.257812 139 C 132.484375 139.015625 132.113281 138.78125 131.957031 138.578125 C 131.675781 138.210938 131.417969 137.828125 131.179688 137.429688 C 130.453125 136.261719 129.816406 135.042969 129.183594 133.808594 C 127.640625 130.847656 126.242188 127.808594 124.847656 124.773438 C 123.929688 122.773438 122.800781 120.757812 122.058594 118.683594 C 121.296875 116.546875 120.839844 114.484375 119.742188 112.4375 C 118.480469 110.085938 116.945312 107.894531 115.519531 105.644531 C 113.714844 102.789062 112.050781 99.847656 110.421875 96.882812 C 109.589844 95.359375 108.769531 93.832031 107.972656 92.296875 C 107.570312 91.53125 107.175781 90.757812 106.789062 89.984375 C 106.472656 89.359375 105.175781 87.425781 105.554688 86.75 L 104.8125 87.054688 C 115.585938 89.601562 123.660156 97.578125 133.269531 102.53125 C 138.742188 105.351562 144.3125 107.964844 149.726562 110.894531 C 151.1875 111.6875 152.640625 112.488281 154.050781 113.367188 C 154.554688 113.667969 155.042969 113.992188 155.507812 114.347656 C 155.691406 114.496094 155.988281 114.945312 155.992188 114.691406 C 155.992188 115.410156 157.171875 115.609375 157.28125 114.863281 L 163.105469 76.675781 L 165.96875 57.921875 L 167.394531 48.542969 C 167.855469 45.527344 168.078125 42.3125 168.972656 39.390625 L 167.769531 39.546875 C 170.15625 43.742188 171.496094 48.414062 172.808594 53.027344 C 173.453125 55.292969 174.011719 57.632812 174.855469 59.847656 C 175.726562 62.148438 176.957031 64.320312 177.832031 66.628906 C 179.625 71.347656 180.984375 76.210938 182.363281 81.0625 C 183.648438 85.582031 185.210938 90.027344 186.402344 94.570312 C 187.648438 99.3125 188.664062 104.382812 191.515625 108.472656 C 191.613281 108.621094 191.746094 108.722656 191.917969 108.765625 C 192.09375 108.8125 192.257812 108.792969 192.417969 108.707031 C 201.28125 101.886719 209.464844 94.25 217.988281 87.003906 C 224.671875 81.320312 231.441406 75.75 237.808594 69.714844 C 239.09375 68.503906 240.382812 67.296875 241.742188 66.167969 C 242.519531 65.515625 243.558594 64.542969 244.367188 64.589844 L 243.710938 63.929688 C 242.417969 74.015625 238.125 83.449219 234.417969 92.824219 C 232.527344 97.597656 230.890625 102.429688 229.253906 107.285156 L 226.652344 114.984375 C 225.792969 117.535156 225.414062 120.359375 224.078125 122.71875 C 223.957031 122.96875 223.984375 123.207031 224.152344 123.429688 C 224.324219 123.648438 224.546875 123.734375 224.824219 123.683594 C 235.667969 120.332031 246.644531 117.515625 257.636719 114.699219 C 267.664062 112.132812 277.59375 108.386719 288.027344 107.90625 L 287.394531 107.074219 C 285.453125 112.328125 280.433594 116.144531 276.367188 119.722656 C 271.363281 124.128906 266.300781 128.515625 261.503906 133.144531 C 256.988281 137.503906 253.027344 142.4375 248.648438 146.9375 C 247.382812 148.234375 246.101562 149.527344 244.746094 150.730469 C 244.351562 151.074219 242.863281 152.484375 242.546875 152.40625 C 242.375 152.371094 242.21875 152.398438 242.070312 152.492188 C 241.921875 152.582031 241.824219 152.710938 241.78125 152.878906 C 241.734375 153.046875 241.753906 153.207031 241.835938 153.359375 C 241.917969 153.515625 242.039062 153.617188 242.207031 153.675781 L 264.027344 161.550781 L 298.628906 174.042969 L 306.617188 176.90625 C 307.417969 177.195312 307.757812 175.925781 306.960938 175.640625 L 285.136719 167.761719 L 250.546875 155.28125 L 242.550781 152.390625 L 242.207031 153.660156 C 243.914062 154.078125 246.300781 151.113281 247.304688 150.136719 C 250.160156 147.375 252.855469 144.449219 255.53125 141.519531 C 257.410156 139.472656 259.222656 137.335938 261.15625 135.332031 C 265.859375 130.449219 271.191406 126.101562 276.238281 121.582031 C 280.808594 117.488281 286.464844 113.378906 288.664062 107.410156 C 288.691406 107.3125 288.695312 107.210938 288.675781 107.113281 C 288.65625 107.011719 288.613281 106.921875 288.554688 106.839844 C 288.492188 106.757812 288.414062 106.695312 288.324219 106.648438 C 288.230469 106.601562 288.132812 106.578125 288.03125 106.578125 C 277.667969 107.054688 267.804688 110.6875 257.851562 113.277344 C 246.683594 116.179688 235.511719 118.992188 224.476562 122.398438 L 225.21875 123.363281 C 226.40625 121.253906 226.761719 118.882812 227.492188 116.601562 C 228.386719 113.808594 229.371094 111.039062 230.308594 108.261719 C 232.011719 103.191406 233.71875 98.132812 235.6875 93.15625 C 239.4375 83.65625 243.714844 74.140625 245.027344 63.917969 C 245.074219 63.550781 244.6875 63.273438 244.371094 63.257812 C 242.484375 63.160156 240.554688 65.414062 239.28125 66.554688 C 237.210938 68.414062 235.265625 70.40625 233.21875 72.289062 C 229.277344 75.925781 225.039062 79.28125 220.945312 82.753906 C 216.421875 86.605469 211.910156 90.464844 207.445312 94.382812 C 202.316406 98.894531 197.175781 103.394531 191.746094 107.558594 L 192.640625 107.792969 C 190.039062 104.085938 189.027344 99.542969 187.910156 95.222656 C 186.726562 90.617188 185.160156 86.125 183.855469 81.554688 C 182.464844 76.703125 181.125 71.824219 179.386719 67.085938 C 178.574219 64.867188 177.644531 62.710938 176.628906 60.578125 C 175.613281 58.445312 175.03125 56.054688 174.375 53.757812 C 172.925781 48.683594 171.527344 43.503906 168.894531 38.886719 C 168.734375 38.660156 168.519531 38.5625 168.246094 38.597656 C 167.972656 38.636719 167.785156 38.78125 167.691406 39.042969 C 166.855469 41.859375 166.625 44.953125 166.171875 47.855469 L 164.699219 57.566406 L 161.839844 76.320312 L 156.015625 114.511719 L 157.304688 114.6875 C 157.332031 113.226562 154.152344 111.878906 153.179688 111.316406 C 149.996094 109.46875 146.703125 107.792969 143.425781 106.128906 C 140.550781 104.671875 137.65625 103.25 134.773438 101.8125 C 130.878906 99.871094 127.269531 97.378906 123.660156 94.992188 C 117.902344 91.203125 111.949219 87.386719 105.160156 85.785156 C 105.019531 85.75 104.878906 85.761719 104.742188 85.816406 C 104.601562 85.871094 104.496094 85.964844 104.417969 86.089844 C 103.949219 86.917969 104.109375 87.453125 104.496094 88.320312 C 105.257812 89.992188 106.136719 91.621094 106.984375 93.246094 C 108.535156 96.226562 110.15625 99.167969 111.84375 102.066406 C 114.914062 107.347656 119.210938 112.386719 120.648438 118.433594 C 121.171875 120.628906 122.5 122.800781 123.4375 124.847656 C 124.964844 128.1875 126.507812 131.523438 128.210938 134.789062 C 128.894531 136.1875 129.667969 137.539062 130.523438 138.839844 C 130.941406 139.449219 131.457031 140.28125 132.273438 140.34375 L 132.273438 139.027344 C 118.972656 139.617188 105.699219 140.292969 92.414062 140.804688 C 81.59375 141.222656 70.21875 138.933594 59.734375 142.527344 C 59.320312 142.667969 59.019531 143.296875 59.445312 143.625 C 64.757812 147.746094 71.269531 149.855469 77.449219 152.289062 C 85.15625 155.328125 92.75 158.746094 100.328125 162.09375 C 107.144531 165.105469 113.625 168.886719 120.445312 171.9375 C 122.125 172.71875 123.84375 173.414062 125.597656 174.019531 C 126.347656 174.265625 127.707031 174.824219 128.453125 174.285156 L 127.65625 173.261719 L 112.367188 186.75 L 87.960938 208.277344 L 82.292969 213.277344 C 81.75 213.753906 82.351562 214.464844 82.933594 214.375 L 104.203125 211.023438 L 138.15625 205.675781 L 146.015625 204.4375 L 145.675781 203.171875 C 144.097656 203.582031 143.597656 207.140625 143.273438 208.371094 C 142.25 212.257812 141.488281 216.214844 140.734375 220.148438 C 140 223.980469 139.316406 227.824219 138.613281 231.660156 C 137.878906 235.699219 136.816406 239.617188 135.691406 243.5625 C 133.367188 251.746094 130.972656 259.929688 130.15625 268.433594 C 130.15625 268.550781 130.1875 268.660156 130.246094 268.761719 C 130.304688 268.863281 130.382812 268.945312 130.484375 269.003906 C 130.585938 269.0625 130.699219 269.089844 130.816406 269.089844 C 130.933594 269.089844 131.042969 269.0625 131.144531 269.003906 C 139.84375 262.75 146.441406 254.160156 153.582031 246.285156 C 161.953125 237.054688 170.515625 227.976562 179.046875 218.894531 L 178.023438 218.761719 C 183.84375 230.296875 189.816406 241.792969 195.390625 253.445312 C 200.222656 263.539062 204.015625 274.292969 210.632812 283.417969 C 210.941406 283.839844 211.703125 283.859375 211.835938 283.261719 C 214.332031 272.023438 213.058594 260.414062 213.257812 249.003906 C 213.46875 236.808594 212.59375 224.316406 214.503906 212.230469 L 213.695312 212.6875 C 224.140625 215.238281 234.734375 217.464844 245.03125 220.550781 C 249.257812 221.820312 253.472656 223.105469 257.703125 224.359375 C 260.828125 225.289062 264.738281 226.53125 267.949219 225.296875 C 268.042969 225.265625 268.128906 225.21875 268.203125 225.148438 C 268.277344 225.082031 268.332031 225 268.371094 224.90625 C 268.40625 224.8125 268.425781 224.714844 268.417969 224.613281 C 268.414062 224.515625 268.386719 224.417969 268.339844 224.332031 C 266.015625 219.527344 262.667969 215.328125 259.183594 211.316406 C 255.859375 207.492188 252.003906 203.878906 249.160156 199.671875 C 247.308594 196.941406 245.75 193.996094 243.867188 191.289062 C 242.726562 189.671875 240.648438 186.210938 238.261719 186.417969 L 238.4375 187.707031 L 261.625 184.066406 L 298.449219 178.273438 L 306.972656 176.929688 C 307.800781 176.785156 307.445312 175.519531 306.617188 175.648438 Z M 306.617188 175.648438 " fill-opacity="1" fill-rule="nonzero"/></g><path fill="#fffefe" d="M 267.382812 163.023438 C 269.84375 158.226562 275.199219 155.210938 278.523438 150.808594 C 280.199219 148.585938 281.832031 146.125 284.375 144.992188 C 291.039062 142.03125 292.84375 150.535156 291.820312 155.09375 C 293.628906 152.597656 297.542969 151.964844 300.046875 153.769531 C 302.550781 155.574219 303.1875 159.488281 301.386719 161.992188 C 304.875 159.496094 310.253906 161.46875 312.265625 165.261719 C 314.277344 169.058594 313.425781 173.84375 311.242188 177.539062 C 314.042969 178.011719 316.179688 180.578125 316.738281 183.355469 C 318.914062 194.101562 307.566406 201.171875 298.382812 202.109375 C 291.527344 202.8125 284.5625 200.871094 278.570312 197.457031 C 268.492188 191.710938 260.9375 181.640625 258.429688 170.308594 C 258.132812 168.988281 257.929688 167.65625 257.820312 166.304688 C 257.714844 164.957031 257.703125 163.609375 257.789062 162.257812 C 257.875 160.90625 258.054688 159.570312 258.332031 158.246094 C 258.605469 156.917969 258.976562 155.621094 259.4375 154.347656 C 259.898438 153.078125 260.445312 151.84375 261.082031 150.648438 C 261.71875 149.457031 262.4375 148.3125 263.238281 147.222656 C 264.035156 146.128906 264.910156 145.101562 265.855469 144.132812 C 266.800781 143.164062 267.8125 142.269531 268.886719 141.445312 C 272.546875 138.613281 276.664062 136.230469 281.191406 135.269531 C 283.914062 134.714844 286.632812 134.722656 289.351562 135.289062 C 291.398438 135.679688 293.101562 136.222656 294.515625 134.308594 C 295.78125 132.601562 295.121094 130.214844 296.335938 128.480469 C 297.597656 126.6875 300.148438 125.949219 302.21875 126.523438 C 310.320312 128.753906 313.085938 143.777344 317.90625 149.878906 C 323.359375 156.761719 328.875 162.917969 336.125 167.824219 C 339.789062 170.304688 341.84375 174.734375 342.121094 179.152344 C 342.394531 183.566406 341.0625 187.960938 339.050781 191.910156 C 337.992188 193.984375 336.753906 195.945312 335.347656 197.796875 C 333.9375 199.652344 332.375 201.363281 330.660156 202.941406 C 328.945312 204.515625 327.109375 205.929688 325.144531 207.175781 C 323.179688 208.425781 321.117188 209.492188 318.964844 210.375 " fill-opacity="1" fill-rule="nonzero"/><path fill="#232323" d="M 268.308594 163.5625 C 270.101562 160.265625 273.050781 157.933594 275.753906 155.417969 C 277.117188 154.179688 278.367188 152.832031 279.503906 151.382812 C 280.683594 149.847656 281.792969 148.195312 283.335938 146.992188 C 285.578125 145.246094 288.449219 144.902344 289.871094 147.671875 C 290.945312 149.769531 291.117188 152.472656 290.632812 154.75 C 290.40625 155.832031 291.859375 156.992188 292.679688 155.953125 C 294.21875 154.019531 297.128906 153.246094 299.253906 154.765625 C 301.378906 156.285156 301.621094 159.265625 300.277344 161.328125 C 299.59375 162.394531 300.957031 163.789062 302.039062 163.089844 C 304.957031 161.171875 308.945312 162.535156 310.792969 165.339844 C 313.097656 168.839844 312.007812 173.453125 310.042969 176.824219 C 309.941406 177.007812 309.882812 177.207031 309.867188 177.417969 C 309.855469 177.628906 309.886719 177.832031 309.96875 178.03125 C 310.046875 178.226562 310.167969 178.394531 310.324219 178.539062 C 310.480469 178.679688 310.664062 178.78125 310.867188 178.839844 C 315.195312 179.796875 316.171875 184.871094 315.191406 188.601562 C 314.261719 192.125 311.609375 194.9375 308.617188 196.871094 C 301.203125 201.644531 292.070312 201.554688 284.046875 198.363281 C 267.984375 191.992188 254.785156 172.601562 260.820312 155.175781 C 263.773438 146.652344 271.550781 139.582031 280.21875 137.15625 C 282.984375 136.394531 285.777344 136.269531 288.601562 136.78125 C 290.367188 137.089844 292.234375 137.660156 293.949219 136.84375 C 295.835938 135.941406 296.675781 134.039062 296.988281 132.070312 C 297.148438 131.046875 297.199219 129.882812 297.949219 129.078125 C 298.75 128.289062 299.714844 127.914062 300.839844 127.949219 C 303.820312 128.003906 306.101562 130.960938 307.535156 133.242188 C 309.417969 136.230469 310.78125 139.511719 312.214844 142.730469 C 313.464844 145.546875 314.714844 148.40625 316.613281 150.859375 C 319.554688 154.714844 322.746094 158.351562 326.191406 161.769531 C 327.988281 163.527344 329.871094 165.179688 331.851562 166.730469 C 333.644531 168.128906 335.71875 169.277344 337.230469 170.988281 C 340.347656 174.519531 341.027344 179.585938 340.113281 184.070312 C 338.265625 193.113281 331.671875 201.101562 324 205.957031 C 322.144531 207.132812 320.207031 208.144531 318.183594 208.992188 C 316.554688 209.675781 317.738281 212.554688 319.40625 211.882812 C 328.609375 208.15625 336.421875 201.191406 340.785156 192.195312 C 343.148438 187.3125 344.535156 181.816406 343.433594 176.40625 C 342.964844 174.054688 342.035156 171.90625 340.640625 169.957031 C 339.101562 167.839844 337.109375 166.546875 335.035156 165 C 330.640625 161.757812 326.765625 157.839844 323.207031 153.707031 C 320.371094 150.421875 317.90625 147.230469 316.074219 143.296875 C 313.210938 137.160156 310.644531 128.191406 303.796875 125.324219 C 299.527344 123.539062 294.734375 125.777344 293.949219 130.441406 C 293.765625 131.515625 293.769531 133.222656 292.667969 133.851562 C 291.84375 134.316406 290.652344 133.851562 289.792969 133.703125 C 286.898438 133.125 283.992188 133.097656 281.085938 133.628906 C 271.28125 135.539062 262.269531 143.375 258.460938 152.496094 C 250.617188 171.277344 264.082031 193.003906 281.484375 200.660156 C 290.371094 204.566406 300.675781 205.109375 309.246094 200.109375 C 312.679688 198.105469 315.746094 195.242188 317.332031 191.542969 C 318.917969 187.84375 319.035156 183 316.648438 179.609375 C 316.058594 178.738281 315.328125 178.007812 314.457031 177.417969 C 313.585938 176.828125 312.636719 176.421875 311.609375 176.199219 L 312.433594 178.21875 C 314.933594 173.785156 315.949219 167.648438 312.582031 163.351562 C 309.855469 159.859375 304.597656 158.328125 300.753906 160.875 L 302.511719 162.636719 C 304.558594 159.523438 303.898438 154.992188 300.828125 152.769531 C 297.757812 150.546875 293.257812 151.296875 290.964844 154.21875 L 293.011719 155.417969 C 294.03125 150.363281 292.019531 141.46875 285.070312 143.480469 C 280.636719 144.769531 278.667969 149.277344 275.683594 152.347656 C 272.492188 155.632812 268.652344 158.34375 266.476562 162.464844 C 265.828125 163.679688 267.667969 164.761719 268.332031 163.546875 Z M 268.308594 163.5625 " fill-opacity="1" fill-rule="nonzero"/><path fill="#fffefe" d="M 171.789062 134.859375 C 171.515625 125.617188 171.96875 116.410156 173.15625 107.242188 C 178.007812 116.027344 182.171875 125.132812 185.644531 134.550781 C 193.105469 125.785156 200.742188 116.867188 210.582031 110.894531 L 205.074219 134.335938 C 217.152344 132.144531 229.332031 130.925781 241.605469 130.683594 L 213.90625 161.417969 C 213.101562 162.3125 212.238281 163.492188 212.691406 164.609375 C 213.105469 165.632812 214.363281 165.933594 215.441406 166.121094 C 224.695312 167.730469 233.757812 170.074219 242.628906 173.15625 C 235.328125 179.910156 225.332031 182.761719 215.742188 185.394531 C 221.835938 190.195312 227.054688 195.808594 231.402344 202.230469 C 229.207031 203.867188 226.109375 202.914062 223.582031 201.890625 C 215.570312 198.582031 207.746094 194.878906 200.113281 190.777344 C 196.941406 198.976562 194.988281 207.453125 194.253906 216.207031 L 179.445312 192.339844 C 177.609375 195.976562 174.417969 198.710938 171.308594 201.339844 L 159.304688 211.496094 C 160.109375 204.070312 161.308594 196.707031 162.890625 189.40625 L 143.421875 189.792969 C 142.105469 189.816406 140.351562 189.496094 140.226562 188.1875 C 140.140625 187.386719 140.765625 186.707031 141.339844 186.140625 C 146.769531 180.78125 151.617188 174.941406 155.886719 168.617188 C 156.113281 168.332031 156.261719 168.011719 156.332031 167.65625 C 156.472656 166.445312 154.851562 165.925781 153.632812 165.8125 C 144.933594 165.011719 136.773438 162.476562 129.152344 158.207031 C 139.355469 155.910156 149.097656 152.359375 158.382812 147.550781 L 146.5 135.46875 C 143.878906 132.804688 141.183594 130.03125 139.867188 126.53125 C 150.246094 129.488281 160.613281 132.476562 170.976562 135.496094 " fill-opacity="1" fill-rule="nonzero"/><path fill="#232323" d="M 172.347656 134.859375 C 172.136719 125.617188 172.621094 116.410156 173.796875 107.242188 L 172.621094 107.5625 C 177.4375 116.304688 181.546875 125.363281 184.949219 134.746094 C 185.121094 135.222656 185.785156 135.519531 186.171875 135.085938 C 193.644531 126.449219 201.109375 117.5625 210.914062 111.460938 L 209.980469 110.742188 C 208.1875 118.5625 206.253906 126.355469 204.378906 134.15625 C 204.347656 134.28125 204.347656 134.410156 204.382812 134.535156 C 204.417969 134.660156 204.480469 134.769531 204.574219 134.859375 C 204.664062 134.953125 204.773438 135.015625 204.898438 135.050781 C 205.023438 135.085938 205.152344 135.089844 205.277344 135.058594 C 217.296875 132.933594 229.410156 131.734375 241.613281 131.464844 L 241.078125 130.160156 C 236.230469 135.53125 231.390625 140.90625 226.546875 146.285156 C 224.125 148.96875 221.707031 151.652344 219.292969 154.335938 C 217.136719 156.722656 214.6875 159.058594 212.777344 161.660156 C 211.585938 163.28125 211.480469 165.304688 213.457031 166.304688 C 214.578125 166.871094 215.96875 166.941406 217.1875 167.167969 C 218.898438 167.484375 220.605469 167.824219 222.300781 168.1875 C 229.121094 169.683594 235.828125 171.578125 242.417969 173.875 L 242.078125 172.625 C 234.699219 179.320312 224.914062 182.09375 215.527344 184.683594 C 215.039062 184.820312 214.753906 185.558594 215.203125 185.914062 C 221.234375 190.683594 226.40625 196.253906 230.722656 202.621094 L 230.996094 201.574219 C 228.738281 203.046875 226.046875 202.0625 223.761719 201.140625 C 221.011719 200.027344 218.304688 198.828125 215.597656 197.605469 C 210.476562 195.273438 205.429688 192.78125 200.464844 190.128906 C 200.363281 190.070312 200.257812 190.039062 200.144531 190.035156 C 200.03125 190.027344 199.921875 190.042969 199.816406 190.085938 C 199.710938 190.128906 199.621094 190.195312 199.542969 190.277344 C 199.464844 190.363281 199.410156 190.457031 199.378906 190.566406 C 196.234375 198.835938 194.277344 207.378906 193.507812 216.195312 L 194.871094 215.828125 C 189.9375 207.875 185 199.917969 180.0625 191.960938 C 179.996094 191.851562 179.910156 191.765625 179.796875 191.699219 C 179.683594 191.636719 179.5625 191.605469 179.433594 191.605469 C 179.308594 191.605469 179.1875 191.636719 179.074219 191.699219 C 178.960938 191.765625 178.875 191.851562 178.808594 191.960938 C 176.761719 195.863281 173.351562 198.648438 170.039062 201.449219 C 166.289062 204.628906 162.535156 207.800781 158.785156 210.960938 L 160.042969 211.480469 C 160.875 204.125 162.078125 196.832031 163.644531 189.59375 C 163.675781 189.480469 163.675781 189.359375 163.652344 189.242188 C 163.628906 189.125 163.582031 189.019531 163.507812 188.921875 C 163.433594 188.824219 163.34375 188.75 163.238281 188.695312 C 163.128906 188.640625 163.015625 188.613281 162.894531 188.609375 L 145.441406 188.949219 C 144.417969 188.972656 142.945312 189.253906 141.980469 188.84375 C 140.050781 188.019531 142.875 185.714844 143.632812 184.933594 C 145.496094 183.015625 147.289062 181.035156 149.011719 178.992188 C 150.574219 177.132812 152.082031 175.226562 153.53125 173.273438 C 154.328125 172.203125 155.109375 171.117188 155.867188 170.015625 C 156.386719 169.261719 157.136719 168.429688 157.105469 167.457031 C 157.050781 165.933594 155.445312 165.304688 154.160156 165.089844 C 151.582031 164.660156 148.988281 164.46875 146.429688 163.914062 C 140.488281 162.613281 134.855469 160.492188 129.539062 157.539062 L 129.347656 158.9375 C 139.601562 156.59375 149.414062 153.027344 158.78125 148.234375 C 158.886719 148.171875 158.972656 148.089844 159.039062 147.984375 C 159.105469 147.882812 159.148438 147.769531 159.164062 147.648438 C 159.179688 147.523438 159.167969 147.40625 159.128906 147.289062 C 159.089844 147.171875 159.027344 147.070312 158.941406 146.980469 C 155.53125 143.515625 152.121094 140.050781 148.710938 136.589844 C 145.664062 133.496094 142.230469 130.4375 140.585938 126.324219 L 139.644531 127.269531 C 150.03125 130.199219 160.390625 133.230469 170.742188 136.265625 C 171.734375 136.554688 172.15625 135.007812 171.167969 134.722656 C 160.796875 131.738281 150.414062 128.792969 140.050781 125.789062 C 139.53125 125.640625 138.886719 126.179688 139.109375 126.734375 C 140.691406 130.730469 143.664062 133.742188 146.628906 136.753906 C 150.351562 140.539062 154.074219 144.324219 157.796875 148.109375 L 157.960938 146.855469 C 148.742188 151.628906 139.074219 155.167969 128.949219 157.472656 C 128.632812 157.566406 128.453125 157.777344 128.410156 158.105469 C 128.367188 158.433594 128.484375 158.6875 128.765625 158.859375 C 135.746094 162.78125 143.207031 165.261719 151.144531 166.304688 C 152.285156 166.453125 153.621094 166.402344 154.703125 166.816406 C 155.78125 167.226562 155.320312 167.945312 154.867188 168.734375 C 154.464844 169.433594 153.925781 170.097656 153.457031 170.753906 C 150.199219 175.304688 146.625 179.589844 142.734375 183.613281 C 141.585938 184.796875 139.140625 186.4375 139.464844 188.386719 C 139.730469 189.960938 141.429688 190.457031 142.808594 190.550781 C 145.988281 190.773438 149.285156 190.449219 152.484375 190.382812 L 162.890625 190.171875 L 162.140625 189.1875 C 160.566406 196.558594 159.375 203.992188 158.566406 211.484375 C 158.492188 212.167969 159.394531 212.371094 159.824219 212.003906 C 163.738281 208.683594 167.652344 205.367188 171.574219 202.050781 C 174.816406 199.324219 178.050781 196.511719 180.074219 192.699219 L 178.816406 192.699219 C 183.753906 200.652344 188.691406 208.609375 193.625 216.566406 C 193.710938 216.707031 193.828125 216.808594 193.980469 216.871094 C 194.132812 216.933594 194.289062 216.945312 194.449219 216.902344 C 194.609375 216.859375 194.738281 216.769531 194.839844 216.640625 C 194.9375 216.511719 194.988281 216.363281 194.992188 216.199219 C 195.746094 207.511719 197.691406 199.101562 200.832031 190.964844 L 199.746094 191.410156 C 205.46875 194.484375 211.296875 197.34375 217.234375 199.984375 C 219.886719 201.160156 222.589844 202.496094 225.367188 203.347656 C 227.535156 204.027344 229.828125 204.199219 231.796875 202.898438 C 231.980469 202.792969 232.09375 202.636719 232.148438 202.433594 C 232.203125 202.230469 232.175781 202.035156 232.070312 201.851562 C 227.652344 195.40625 222.386719 189.75 216.273438 184.882812 L 215.953125 186.113281 C 225.621094 183.46875 235.59375 180.601562 243.167969 173.691406 C 243.257812 173.597656 243.320312 173.484375 243.351562 173.355469 C 243.382812 173.230469 243.382812 173.101562 243.347656 172.972656 C 243.3125 172.847656 243.25 172.734375 243.15625 172.640625 C 243.0625 172.546875 242.953125 172.484375 242.824219 172.449219 C 237.054688 170.457031 231.195312 168.769531 225.25 167.386719 C 222.28125 166.707031 219.292969 166.09375 216.292969 165.542969 C 214.839844 165.277344 212.707031 165.148438 213.738281 162.847656 C 214.332031 161.523438 215.96875 160.25 216.941406 159.175781 C 225.351562 149.855469 233.757812 140.539062 242.152344 131.21875 C 242.382812 130.976562 242.433594 130.699219 242.304688 130.394531 C 242.179688 130.085938 241.949219 129.929688 241.613281 129.917969 C 229.273438 130.167969 217.03125 131.402344 204.890625 133.625 L 205.789062 134.523438 C 207.585938 126.703125 209.328125 118.863281 211.207031 111.0625 C 211.277344 110.789062 211.199219 110.566406 210.976562 110.394531 C 210.753906 110.222656 210.519531 110.203125 210.273438 110.339844 C 200.308594 116.382812 192.542969 125.1875 185.136719 134.03125 L 186.359375 134.355469 C 182.789062 124.914062 178.570312 115.769531 173.710938 106.917969 C 173.371094 106.316406 172.609375 106.667969 172.535156 107.238281 C 171.371094 116.410156 170.9375 125.613281 171.230469 134.855469 C 171.253906 135.570312 172.363281 135.570312 172.347656 134.855469 Z M 172.347656 134.859375 " fill-opacity="1" fill-rule="nonzero"/><path fill="#ffd60a" d="M 238.660156 306.582031 C 234.871094 292.042969 236.722656 282.078125 237.234375 279.847656 C 237.894531 274.183594 241.066406 268.808594 246.921875 263.414062 C 251.789062 258.933594 258.03125 254.792969 264.652344 250.40625 C 274.640625 243.777344 284.96875 236.917969 292.195312 227.996094 C 300.167969 218.152344 302.78125 207.6875 300.429688 195.0625 C 297.65625 180.1875 291.460938 169.386719 282.015625 162.953125 C 268.039062 153.433594 251.230469 156.542969 251.0625 156.574219 L 249.128906 146.902344 C 249.972656 146.734375 269.984375 142.917969 287.433594 154.722656 C 299.199219 162.683594 306.824219 175.644531 310.105469 193.253906 C 312.988281 208.71875 309.628906 222.109375 299.84375 234.199219 C 291.660156 244.296875 280.203125 251.90625 270.089844 258.621094 C 258.605469 266.242188 247.757812 273.445312 247.007812 281.171875 L 246.960938 281.625 L 246.855469 281.984375 C 246.75 282.417969 244.761719 290.910156 248.195312 304.097656 Z M 238.660156 306.582031 " fill-opacity="1" fill-rule="nonzero"/><path fill="#232323" d="M 246.261719 145.761719 C 251.222656 146.207031 251.808594 150.753906 250.921875 153.566406 C 250.71875 154.207031 248.980469 157 248.308594 157 " fill-opacity="1" fill-rule="nonzero"/><path fill="#232323" d="M 245.992188 146.738281 C 248.359375 147.238281 249.929688 148.726562 249.914062 151.222656 C 249.921875 152.007812 249.757812 152.753906 249.425781 153.460938 C 249.203125 153.878906 248.957031 154.273438 248.679688 154.65625 C 248.539062 154.863281 247.921875 155.742188 247.957031 155.730469 C 246.3125 156.226562 247.011719 158.558594 248.640625 158.265625 C 250.023438 158.019531 251.050781 156.261719 251.675781 155.152344 C 252.378906 153.878906 252.6875 152.515625 252.59375 151.0625 C 252.417969 147.367188 249.949219 144.871094 246.246094 144.753906 C 245.125 144.71875 244.847656 146.503906 245.976562 146.742188 Z M 245.992188 146.738281 " fill-opacity="1" fill-rule="nonzero"/><path fill="#ffd60a" d="M 209.296875 136.789062 L 227.433594 134.8125 C 228.074219 134.742188 228.722656 134.703125 229.371094 134.699219 C 230.015625 134.691406 230.664062 134.714844 231.308594 134.773438 C 231.953125 134.828125 232.59375 134.917969 233.230469 135.039062 C 233.867188 135.15625 234.496094 135.308594 235.117188 135.488281 C 235.742188 135.671875 236.351562 135.882812 236.953125 136.125 C 237.554688 136.367188 238.140625 136.636719 238.714844 136.9375 C 239.289062 137.234375 239.847656 137.5625 240.390625 137.914062 C 240.933594 138.269531 241.457031 138.648438 241.960938 139.054688 C 242.464844 139.460938 242.949219 139.890625 243.414062 140.34375 C 243.875 140.796875 244.316406 141.273438 244.730469 141.769531 C 245.148438 142.265625 245.539062 142.78125 245.902344 143.316406 C 246.269531 143.851562 246.605469 144.402344 246.917969 144.96875 C 247.230469 145.539062 247.511719 146.121094 247.765625 146.714844 C 248.019531 147.3125 248.246094 147.917969 248.4375 148.535156 C 248.632812 149.152344 248.796875 149.78125 248.929688 150.414062 C 249.0625 151.046875 249.164062 151.6875 249.234375 152.328125 C 249.304688 152.972656 249.34375 153.621094 249.351562 154.265625 C 249.355469 154.914062 249.332031 155.5625 249.273438 156.207031 C 249.21875 156.851562 249.128906 157.492188 249.011719 158.128906 C 248.890625 158.765625 248.738281 159.394531 248.558594 160.015625 C 248.375 160.636719 248.164062 161.25 247.921875 161.851562 C 247.683594 162.453125 247.410156 163.039062 247.113281 163.613281 C 246.8125 164.1875 246.484375 164.746094 246.132812 165.289062 C 245.777344 165.832031 245.398438 166.355469 244.992188 166.859375 C 244.585938 167.363281 244.15625 167.847656 243.703125 168.3125 C 243.25 168.773438 242.773438 169.210938 242.277344 169.628906 C 241.78125 170.046875 241.265625 170.4375 240.730469 170.800781 C 240.199219 171.167969 239.644531 171.503906 239.078125 171.816406 C 238.511719 172.128906 237.929688 172.410156 237.332031 172.664062 C 236.738281 172.917969 236.128906 173.140625 235.511719 173.335938 C 234.894531 173.53125 234.269531 173.695312 233.632812 173.828125 C 233 173.960938 232.363281 174.0625 231.71875 174.132812 L 213.582031 176.109375 Z M 209.296875 136.789062 " fill-opacity="1" fill-rule="nonzero"/><path fill="#fffefe" d="M 106.78125 203.84375 C 103.472656 199.585938 97.652344 197.617188 93.570312 193.90625 C 91.527344 192.03125 89.453125 189.914062 86.753906 189.269531 C 79.65625 187.59375 79.460938 196.285156 81.296875 200.570312 C 79.058594 198.453125 75.09375 198.554688 72.96875 200.792969 C 70.839844 203.03125 70.941406 206.992188 73.171875 209.121094 C 69.28125 207.316406 64.355469 210.25 63.089844 214.351562 C 61.824219 218.449219 63.53125 222.996094 66.371094 226.210938 C 63.710938 227.195312 62.082031 230.109375 62.046875 232.945312 C 61.894531 243.910156 74.355469 248.757812 83.554688 247.984375 C 90.425781 247.40625 96.910156 244.210938 102.164062 239.75 C 111.003906 232.246094 116.566406 220.941406 116.933594 209.34375 C 116.984375 207.992188 116.933594 206.640625 116.789062 205.296875 C 116.644531 203.949219 116.40625 202.621094 116.074219 201.308594 C 115.738281 199.996094 115.3125 198.714844 114.796875 197.464844 C 114.28125 196.214844 113.679688 195.003906 112.988281 193.839844 C 112.300781 192.675781 111.53125 191.566406 110.683594 190.507812 C 109.839844 189.453125 108.921875 188.460938 107.933594 187.539062 C 106.945312 186.613281 105.894531 185.761719 104.785156 184.988281 C 103.675781 184.210938 102.515625 183.519531 101.308594 182.910156 C 97.191406 180.800781 92.703125 179.222656 88.074219 179.113281 C 85.296875 179.078125 82.625 179.59375 80.058594 180.660156 C 78.121094 181.421875 76.558594 182.269531 74.800781 180.660156 C 73.242188 179.214844 73.4375 176.742188 71.933594 175.269531 C 70.363281 173.738281 67.722656 173.488281 65.796875 174.433594 C 58.246094 178.125 58.292969 193.398438 54.695312 200.289062 C 51.871094 205.664062 48.765625 210.871094 45.378906 215.910156 C 44.132812 217.765625 42.84375 220.605469 41.21875 222.128906 C 39.46875 223.765625 36.945312 224.136719 35.101562 225.753906 C 31.691406 228.730469 31.011719 233.988281 32.523438 238.253906 C 34.039062 242.515625 37.316406 245.902344 40.886719 248.679688 C 43.328125 250.566406 45.917969 252.226562 48.65625 253.65625 C 51.394531 255.085938 54.234375 256.265625 57.179688 257.191406 C 60.125 258.121094 63.132812 258.78125 66.195312 259.175781 C 69.257812 259.574219 72.332031 259.695312 75.414062 259.550781 " fill-opacity="1" fill-rule="nonzero"/><path fill="#232323" d="M 107.542969 203.085938 C 104.625 199.457031 100.324219 197.5 96.589844 194.871094 C 93.015625 192.351562 90.261719 188.253906 85.542969 187.910156 C 78.660156 187.414062 78.230469 196.285156 80.117188 200.902344 L 82.164062 199.710938 C 79.339844 197.238281 74.773438 197.105469 72.078125 199.90625 C 69.378906 202.707031 69.652344 207.304688 72.265625 210.03125 L 73.511719 207.886719 C 69.257812 206.09375 64.324219 208.714844 62.371094 212.664062 C 59.9375 217.574219 62.136719 223.257812 65.4375 227.167969 L 66.03125 224.921875 C 61.496094 226.773438 60.066406 231.546875 60.917969 236.078125 C 61.65625 239.972656 64.171875 243.1875 67.367188 245.425781 C 74.832031 250.660156 84.949219 250.558594 93.109375 247.148438 C 112.101562 239.214844 125.109375 213.769531 115.15625 194.46875 C 110.34375 185.140625 100.265625 178.6875 89.878906 177.613281 C 86.960938 177.316406 84.101562 177.609375 81.300781 178.484375 C 80.058594 178.871094 78.847656 179.5625 77.578125 179.828125 C 75.972656 180.171875 75.375 178.808594 74.925781 177.515625 C 74.125 175.214844 72.996094 173.402344 70.582031 172.585938 C 69.511719 172.242188 68.421875 172.140625 67.308594 172.285156 C 66.195312 172.425781 65.167969 172.800781 64.222656 173.402344 C 60.957031 175.449219 59.25 179.160156 58.082031 182.6875 C 56.75 186.664062 56.039062 190.808594 54.921875 194.851562 C 53.539062 199.875 50.675781 204.34375 47.980469 208.761719 C 46.390625 211.367188 44.613281 213.875 43.0625 216.484375 C 41.617188 218.941406 40.472656 221.003906 37.820312 222.28125 C 35.511719 223.382812 33.535156 224.5 32.097656 226.691406 C 30.804688 228.75 30.148438 230.996094 30.125 233.429688 C 29.96875 238.78125 32.898438 243.550781 36.621094 247.167969 C 44.679688 255.011719 55.839844 259.644531 66.910156 260.894531 C 69.746094 261.207031 72.589844 261.277344 75.433594 261.109375 C 77.453125 261 77.480469 257.871094 75.433594 257.949219 C 70.242188 258.152344 65.128906 257.589844 60.101562 256.257812 C 55.078125 254.929688 50.355469 252.890625 45.941406 250.144531 C 41.761719 247.527344 37.5 244.246094 35.089844 239.84375 C 33 236.027344 32.546875 230.496094 35.945312 227.226562 C 37.566406 225.671875 39.910156 225.210938 41.691406 223.867188 C 43.476562 222.523438 44.585938 220.496094 45.6875 218.597656 C 48.507812 213.75 51.730469 209.164062 54.445312 204.242188 C 56.34375 200.882812 57.75 197.328125 58.671875 193.582031 C 59.574219 189.902344 60.300781 186.160156 61.609375 182.59375 C 62.632812 179.835938 64.484375 175.894531 67.824219 175.519531 C 70.699219 175.195312 71.324219 177.335938 72.214844 179.503906 C 73 181.410156 74.578125 183.0625 76.75 183.167969 C 79.003906 183.273438 81.179688 181.839844 83.308594 181.289062 C 85.941406 180.628906 88.589844 180.542969 91.261719 181.035156 C 96.421875 181.964844 101.070312 184.042969 105.203125 187.273438 C 112.402344 192.992188 115.953125 201.855469 115.296875 210.945312 C 114.59375 220.675781 110.050781 230.070312 103.066406 236.859375 C 96.507812 243.222656 87.234375 247.734375 77.921875 246.257812 C 71.039062 245.164062 63.09375 240.707031 63.484375 232.726562 C 63.496094 232.15625 63.585938 231.597656 63.753906 231.054688 C 63.925781 230.507812 64.167969 230 64.484375 229.527344 C 64.800781 229.050781 65.175781 228.632812 65.613281 228.265625 C 66.050781 227.898438 66.527344 227.601562 67.050781 227.371094 C 67.90625 227.007812 67.820312 225.835938 67.320312 225.261719 C 64.773438 222.320312 62.886719 217.839844 64.59375 214.007812 C 65.972656 210.917969 69.59375 208.996094 72.816406 210.339844 C 74.066406 210.863281 74.863281 209.042969 74.066406 208.199219 C 72.398438 206.472656 72.160156 203.488281 73.84375 201.664062 C 75.527344 199.84375 78.59375 199.847656 80.417969 201.421875 C 81.234375 202.125 82.980469 201.46875 82.464844 200.230469 C 80.804688 196.253906 81 188.175781 87.410156 190.683594 C 89.339844 191.4375 90.859375 192.972656 92.371094 194.339844 C 93.742188 195.570312 95.203125 196.675781 96.757812 197.664062 C 100.011719 199.757812 103.519531 201.535156 106.011719 204.589844 C 106.882812 205.660156 108.378906 204.136719 107.527344 203.070312 Z M 107.542969 203.085938 " fill-opacity="1" fill-rule="nonzero"/><path fill="#ffd60a" d="M 208.722656 133.019531 C 209.347656 132.949219 209.976562 132.914062 210.605469 132.90625 C 211.234375 132.898438 211.863281 132.921875 212.488281 132.980469 C 213.117188 133.035156 213.738281 133.121094 214.359375 133.234375 C 214.976562 133.351562 215.585938 133.5 216.191406 133.675781 C 216.796875 133.851562 217.390625 134.058594 217.972656 134.292969 C 218.558594 134.527344 219.128906 134.789062 219.6875 135.082031 C 220.246094 135.371094 220.789062 135.691406 221.316406 136.035156 C 221.84375 136.378906 222.351562 136.746094 222.84375 137.140625 C 223.332031 137.535156 223.804688 137.953125 224.253906 138.394531 C 224.703125 138.835938 225.128906 139.296875 225.535156 139.777344 C 225.9375 140.261719 226.316406 140.761719 226.671875 141.28125 C 227.027344 141.800781 227.355469 142.335938 227.660156 142.890625 C 227.960938 143.441406 228.238281 144.007812 228.484375 144.585938 C 228.730469 145.164062 228.949219 145.753906 229.136719 146.355469 C 229.328125 146.957031 229.484375 147.5625 229.613281 148.179688 C 229.746094 148.796875 229.84375 149.417969 229.910156 150.042969 L 230.882812 158.949219 C 230.949219 159.574219 230.988281 160.199219 230.992188 160.832031 C 231 161.460938 230.976562 162.089844 230.921875 162.714844 C 230.867188 163.34375 230.78125 163.964844 230.664062 164.582031 C 230.546875 165.203125 230.402344 165.8125 230.222656 166.417969 C 230.046875 167.023438 229.84375 167.617188 229.605469 168.199219 C 229.371094 168.785156 229.109375 169.355469 228.820312 169.914062 C 228.527344 170.472656 228.210938 171.015625 227.867188 171.542969 C 227.519531 172.070312 227.152344 172.578125 226.757812 173.066406 C 226.363281 173.558594 225.945312 174.027344 225.503906 174.480469 C 225.066406 174.929688 224.605469 175.355469 224.121094 175.761719 C 223.640625 176.164062 223.136719 176.542969 222.617188 176.898438 C 222.097656 177.253906 221.5625 177.582031 221.011719 177.886719 C 220.457031 178.1875 219.894531 178.464844 219.3125 178.710938 C 218.734375 178.957031 218.144531 179.175781 217.542969 179.363281 C 216.945312 179.554688 216.335938 179.710938 215.71875 179.839844 C 215.101562 179.96875 214.484375 180.070312 213.855469 180.136719 Z M 208.722656 133.019531 " fill-opacity="1" fill-rule="nonzero"/><path fill="#ffd60a" d="M 221.332031 155.484375 C 221.414062 156.253906 221.484375 157.027344 221.535156 157.796875 C 221.585938 158.570312 221.621094 159.335938 221.640625 160.101562 C 221.660156 160.863281 221.664062 161.621094 221.648438 162.367188 C 221.632812 163.117188 221.601562 163.855469 221.554688 164.582031 C 221.507812 165.308594 221.445312 166.019531 221.367188 166.71875 C 221.285156 167.414062 221.191406 168.09375 221.078125 168.753906 C 220.96875 169.417969 220.84375 170.058594 220.699219 170.675781 C 220.558594 171.296875 220.402344 171.890625 220.230469 172.460938 C 220.058594 173.03125 219.875 173.574219 219.675781 174.09375 C 219.476562 174.609375 219.265625 175.097656 219.039062 175.554688 C 218.816406 176.015625 218.578125 176.441406 218.332031 176.835938 C 218.082031 177.230469 217.824219 177.59375 217.554688 177.921875 C 217.285156 178.25 217.007812 178.542969 216.722656 178.800781 C 216.433594 179.058594 216.136719 179.28125 215.835938 179.464844 C 215.53125 179.652344 215.21875 179.800781 214.90625 179.910156 C 214.589844 180.019531 214.265625 180.09375 213.941406 180.128906 C 213.613281 180.164062 213.285156 180.164062 212.953125 180.121094 C 212.621094 180.082031 212.285156 180.003906 211.949219 179.890625 C 211.613281 179.773438 211.277344 179.621094 210.9375 179.429688 C 210.601562 179.242188 210.265625 179.015625 209.933594 178.75 C 209.601562 178.488281 209.269531 178.191406 208.941406 177.859375 C 208.617188 177.527344 208.292969 177.160156 207.976562 176.761719 C 207.65625 176.363281 207.34375 175.933594 207.039062 175.46875 C 206.734375 175.007812 206.4375 174.515625 206.144531 173.996094 C 205.855469 173.476562 205.574219 172.929688 205.304688 172.355469 C 205.03125 171.78125 204.769531 171.183594 204.519531 170.5625 C 204.269531 169.9375 204.027344 169.296875 203.800781 168.632812 C 203.574219 167.96875 203.355469 167.285156 203.15625 166.585938 C 202.953125 165.886719 202.761719 165.175781 202.589844 164.445312 C 202.414062 163.71875 202.253906 162.980469 202.105469 162.230469 C 201.960938 161.480469 201.828125 160.722656 201.714844 159.957031 C 201.597656 159.195312 201.496094 158.425781 201.414062 157.652344 C 201.328125 156.882812 201.261719 156.109375 201.210938 155.339844 C 201.160156 154.566406 201.121094 153.800781 201.105469 153.035156 C 201.085938 152.273438 201.082031 151.515625 201.097656 150.765625 C 201.113281 150.019531 201.140625 149.28125 201.1875 148.554688 C 201.234375 147.828125 201.300781 147.117188 201.378906 146.417969 C 201.457031 145.722656 201.554688 145.042969 201.664062 144.378906 C 201.777344 143.71875 201.902344 143.078125 202.046875 142.460938 C 202.1875 141.839844 202.34375 141.246094 202.515625 140.675781 C 202.6875 140.105469 202.871094 139.5625 203.070312 139.042969 C 203.269531 138.527344 203.480469 138.039062 203.703125 137.582031 C 203.929688 137.121094 204.164062 136.695312 204.414062 136.300781 C 204.660156 135.90625 204.917969 135.542969 205.1875 135.214844 C 205.457031 134.886719 205.738281 134.59375 206.023438 134.335938 C 206.3125 134.078125 206.609375 133.855469 206.910156 133.671875 C 207.214844 133.484375 207.523438 133.335938 207.839844 133.226562 C 208.15625 133.117188 208.480469 133.042969 208.804688 133.007812 C 209.128906 132.972656 209.460938 132.972656 209.792969 133.015625 C 210.125 133.054688 210.460938 133.132812 210.796875 133.246094 C 211.132812 133.363281 211.46875 133.515625 211.804688 133.707031 C 212.144531 133.894531 212.476562 134.121094 212.8125 134.386719 C 213.144531 134.648438 213.476562 134.945312 213.800781 135.277344 C 214.128906 135.609375 214.453125 135.976562 214.769531 136.375 C 215.089844 136.773438 215.398438 137.203125 215.707031 137.667969 C 216.011719 138.128906 216.308594 138.621094 216.597656 139.140625 C 216.890625 139.660156 217.167969 140.207031 217.441406 140.78125 C 217.714844 141.355469 217.976562 141.953125 218.226562 142.574219 C 218.476562 143.199219 218.71875 143.839844 218.945312 144.503906 C 219.171875 145.167969 219.386719 145.847656 219.589844 146.550781 C 219.792969 147.25 219.980469 147.960938 220.15625 148.691406 C 220.332031 149.417969 220.492188 150.15625 220.640625 150.90625 C 220.785156 151.65625 220.917969 152.414062 221.03125 153.179688 C 221.148438 153.941406 221.246094 154.710938 221.332031 155.484375 Z M 221.332031 155.484375 " fill-opacity="1" fill-rule="nonzero"/><path fill="#232323" d="M 206.039062 146.746094 L 211.707031 146.128906 C 211.972656 146.097656 212.238281 146.121094 212.496094 146.199219 C 212.757812 146.273438 212.992188 146.394531 213.199219 146.566406 C 213.410156 146.734375 213.582031 146.9375 213.710938 147.175781 C 213.839844 147.410156 213.921875 147.664062 213.949219 147.933594 C 213.980469 148.199219 213.957031 148.464844 213.878906 148.722656 C 213.804688 148.980469 213.683594 149.21875 213.511719 149.425781 C 213.34375 149.636719 213.140625 149.808594 212.90625 149.9375 C 212.667969 150.066406 212.414062 150.148438 212.148438 150.175781 L 206.480469 150.792969 C 206.210938 150.824219 205.945312 150.800781 205.6875 150.722656 C 205.429688 150.648438 205.195312 150.527344 204.984375 150.355469 C 204.773438 150.1875 204.601562 149.984375 204.472656 149.75 C 204.34375 149.511719 204.265625 149.257812 204.234375 148.992188 C 204.207031 148.722656 204.230469 148.457031 204.304688 148.199219 C 204.378906 147.941406 204.503906 147.707031 204.671875 147.496094 C 204.839844 147.285156 205.042969 147.113281 205.28125 146.984375 C 205.515625 146.855469 205.769531 146.777344 206.039062 146.746094 Z M 206.039062 146.746094 " fill-opacity="1" fill-rule="nonzero"/><path fill="#232323" d="M 212.140625 149.53125 L 208.660156 149.910156 C 208.054688 150.007812 207.449219 150.074219 206.835938 150.109375 C 206.714844 150.109375 206.59375 150.15625 206.472656 150.148438 C 204.976562 150.054688 204.183594 148.445312 205.667969 147.609375 C 206.691406 147.042969 208.367188 147.160156 209.515625 147.035156 C 210.121094 146.9375 210.730469 146.871094 211.339844 146.835938 C 211.457031 146.835938 211.582031 146.789062 211.703125 146.796875 C 213.636719 146.914062 213.800781 149.140625 211.96875 149.554688 C 211.140625 149.742188 211.492188 151.011719 212.308594 150.824219 C 212.644531 150.761719 212.957031 150.640625 213.246094 150.460938 C 213.535156 150.277344 213.78125 150.050781 213.984375 149.777344 C 214.1875 149.5 214.332031 149.199219 214.421875 148.871094 C 214.507812 148.539062 214.535156 148.207031 214.496094 147.867188 C 214.457031 147.527344 214.355469 147.207031 214.195312 146.90625 C 214.035156 146.605469 213.824219 146.34375 213.566406 146.125 C 213.304688 145.902344 213.011719 145.734375 212.691406 145.625 C 212.367188 145.515625 212.035156 145.46875 211.695312 145.484375 C 209.757812 145.53125 207.839844 145.742188 205.9375 146.109375 C 202.757812 146.710938 202.886719 151.351562 206.234375 151.460938 C 208.164062 151.527344 210.214844 151.054688 212.132812 150.847656 C 212.972656 150.753906 212.984375 149.4375 212.140625 149.53125 Z M 212.140625 149.53125 " fill-opacity="1" fill-rule="nonzero"/><path fill="#232323" d="M 207.484375 160.023438 L 213.152344 159.40625 C 213.421875 159.378906 213.683594 159.402344 213.945312 159.476562 C 214.203125 159.550781 214.4375 159.675781 214.648438 159.84375 C 214.859375 160.011719 215.027344 160.214844 215.160156 160.453125 C 215.289062 160.6875 215.367188 160.941406 215.398438 161.210938 C 215.425781 161.476562 215.402344 161.742188 215.328125 162 C 215.25 162.261719 215.128906 162.496094 214.960938 162.707031 C 214.792969 162.914062 214.589844 163.085938 214.351562 163.214844 C 214.113281 163.34375 213.863281 163.425781 213.59375 163.453125 L 207.925781 164.070312 C 207.65625 164.101562 207.394531 164.078125 207.136719 164 C 206.875 163.925781 206.640625 163.804688 206.429688 163.636719 C 206.21875 163.464844 206.050781 163.261719 205.921875 163.027344 C 205.789062 162.789062 205.710938 162.535156 205.683594 162.269531 C 205.652344 162 205.675781 161.738281 205.75 161.476562 C 205.828125 161.21875 205.949219 160.984375 206.117188 160.773438 C 206.289062 160.5625 206.492188 160.390625 206.726562 160.261719 C 206.964844 160.132812 207.21875 160.054688 207.484375 160.023438 Z M 207.484375 160.023438 " fill-opacity="1" fill-rule="nonzero"/><path fill="#232323" d="M 213.585938 162.808594 L 210.105469 163.1875 C 209.5 163.285156 208.894531 163.351562 208.28125 163.386719 C 208.164062 163.386719 208.039062 163.433594 207.921875 163.425781 C 206.421875 163.335938 205.628906 161.722656 207.117188 160.886719 C 208.136719 160.320312 209.8125 160.4375 210.960938 160.3125 C 211.566406 160.214844 212.175781 160.148438 212.785156 160.113281 C 212.90625 160.113281 213.027344 160.066406 213.148438 160.074219 C 215.082031 160.191406 215.246094 162.417969 213.414062 162.832031 C 212.589844 163.019531 212.9375 164.289062 213.753906 164.101562 C 214.089844 164.039062 214.402344 163.917969 214.691406 163.738281 C 214.980469 163.554688 215.226562 163.328125 215.429688 163.054688 C 215.632812 162.78125 215.777344 162.476562 215.867188 162.148438 C 215.957031 161.816406 215.980469 161.484375 215.941406 161.144531 C 215.902344 160.804688 215.800781 160.484375 215.640625 160.183594 C 215.480469 159.882812 215.269531 159.621094 215.011719 159.402344 C 214.75 159.179688 214.460938 159.015625 214.136719 158.902344 C 213.8125 158.792969 213.480469 158.746094 213.140625 158.761719 C 211.203125 158.8125 209.285156 159.019531 207.386719 159.386719 C 204.203125 159.992188 204.335938 164.628906 207.679688 164.738281 C 209.609375 164.804688 211.660156 164.332031 213.582031 164.125 C 214.417969 164.03125 214.429688 162.714844 213.585938 162.808594 Z M 213.585938 162.808594 " fill-opacity="1" fill-rule="nonzero"/><g clip-path="url(#9673419f54)"><path fill="#ffd60a" d="M 82.703125 336.355469 L 72.847656 336.421875 C 72.769531 324.453125 77.164062 310.792969 85.910156 295.820312 C 88.640625 291.175781 91.59375 286.675781 94.777344 282.328125 C 90.488281 278.367188 86.949219 273.828125 84.152344 268.703125 C 77.675781 256.792969 75.503906 241.738281 77.886719 225.164062 C 79.460938 214.253906 82.660156 204.742188 87.433594 196.929688 C 91.464844 190.316406 95.910156 183.425781 101.101562 177.878906 C 105.429688 173.253906 115.164062 164.921875 124.167969 163.042969 L 126.171875 172.695312 C 120.75 173.820312 112.917969 179.675781 108.296875 184.628906 C 103.679688 189.585938 99.609375 195.910156 95.851562 202.074219 C 91.792969 208.746094 89.035156 216.988281 87.667969 226.585938 C 86.21875 236.664062 85.941406 251.335938 92.839844 264.007812 C 94.976562 267.929688 97.652344 271.433594 100.875 274.523438 C 102.367188 272.722656 103.761719 271.136719 104.996094 269.800781 C 115.75 258.210938 126.847656 252.109375 137.976562 251.683594 C 139.601562 251.621094 141.726562 251.65625 143.914062 252.480469 C 147.136719 253.703125 149.730469 256.363281 151.414062 260.175781 C 153.765625 265.484375 153.773438 271.660156 151.4375 277.566406 C 148.78125 284.269531 143.355469 289.890625 136.914062 292.605469 C 131.476562 294.902344 125.210938 295.558594 118.785156 294.515625 C 112.984375 293.527344 107.589844 291.464844 102.609375 288.324219 C 92.996094 301.496094 82.597656 320.203125 82.703125 336.355469 Z M 108.703125 280.476562 C 115.183594 284.277344 122.34375 285.800781 128.480469 284.800781 C 130.0625 284.550781 131.59375 284.117188 133.074219 283.503906 C 137.125 281.796875 140.574219 278.207031 142.261719 273.914062 C 143.625 270.503906 143.664062 267.023438 142.390625 264.152344 C 141.828125 262.878906 141.0625 261.933594 140.398438 261.679688 C 139.816406 261.457031 138.691406 261.503906 138.351562 261.515625 C 129.921875 261.835938 121.132812 266.875 112.222656 276.488281 C 111.128906 277.652344 109.953125 278.988281 108.703125 280.476562 Z M 108.703125 280.476562 " fill-opacity="1" fill-rule="nonzero"/></g><path fill="#232323" d="M 179.390625 165.6875 L 162.164062 169.5 L 161.109375 164.726562 L 177.589844 161.078125 C 178.082031 160.972656 178.511719 161.089844 178.890625 161.417969 L 179.847656 162.222656 C 181.054688 163.269531 180.769531 165.378906 179.390625 165.6875 Z M 179.390625 165.6875 " fill-opacity="1" fill-rule="nonzero"/><path fill="#232323" d="M 179.214844 165.050781 L 161.992188 168.867188 L 162.800781 169.324219 L 161.742188 164.550781 L 161.285156 165.359375 L 171 163.207031 L 176.539062 161.980469 C 176.925781 161.847656 177.324219 161.761719 177.730469 161.71875 C 178.960938 161.765625 181.199219 164.355469 179.214844 165.046875 C 178.421875 165.324219 178.765625 166.597656 179.554688 166.316406 C 182.414062 165.316406 181.117188 162.101562 179.214844 160.863281 C 177.78125 159.929688 175.777344 160.800781 174.253906 161.136719 L 160.925781 164.089844 C 160.753906 164.144531 160.625 164.25 160.535156 164.40625 C 160.449219 164.558594 160.425781 164.726562 160.46875 164.898438 L 161.519531 169.671875 C 161.574219 169.84375 161.679688 169.972656 161.835938 170.0625 C 161.992188 170.152344 162.15625 170.175781 162.332031 170.132812 L 179.566406 166.335938 C 180.390625 166.136719 180.042969 164.867188 179.214844 165.050781 Z M 179.214844 165.050781 " fill-opacity="1" fill-rule="nonzero"/><path fill="#232323" d="M 174.015625 152.699219 L 156.792969 156.515625 L 155.734375 151.742188 L 172.214844 148.09375 C 172.703125 147.992188 173.136719 148.105469 173.515625 148.433594 L 174.472656 149.238281 C 175.675781 150.265625 175.378906 152.390625 174.015625 152.699219 Z M 174.015625 152.699219 " fill-opacity="1" fill-rule="nonzero"/><path fill="#232323" d="M 173.835938 152.066406 L 156.625 155.875 L 157.433594 156.335938 L 156.378906 151.5625 L 155.917969 152.371094 L 165.636719 150.21875 L 171.175781 148.992188 C 171.5625 148.859375 171.957031 148.773438 172.363281 148.730469 C 173.597656 148.777344 175.832031 151.367188 173.851562 152.0625 C 173.054688 152.335938 173.398438 153.609375 174.191406 153.328125 C 177.046875 152.328125 175.757812 149.113281 173.851562 147.871094 C 172.417969 146.941406 170.414062 147.808594 168.890625 148.148438 L 155.5625 151.101562 C 155.394531 151.152344 155.261719 151.257812 155.175781 151.414062 C 155.085938 151.570312 155.0625 151.734375 155.105469 151.90625 L 156.160156 156.679688 C 156.214844 156.847656 156.320312 156.976562 156.476562 157.0625 C 156.628906 157.148438 156.792969 157.171875 156.964844 157.132812 L 174.1875 153.316406 C 175.007812 153.148438 174.660156 151.878906 173.835938 152.066406 Z M 173.835938 152.066406 " fill-opacity="1" fill-rule="nonzero"/><path fill="#ffd60a" d="M 159.074219 182.285156 L 141.261719 186.226562 C 140.628906 186.367188 139.992188 186.476562 139.351562 186.554688 C 138.707031 186.632812 138.0625 186.679688 137.414062 186.691406 C 136.765625 186.707031 136.121094 186.6875 135.472656 186.636719 C 134.828125 186.589844 134.1875 186.507812 133.546875 186.394531 C 132.910156 186.28125 132.28125 186.140625 131.65625 185.964844 C 131.03125 185.789062 130.417969 185.585938 129.816406 185.351562 C 129.210938 185.117188 128.621094 184.851562 128.042969 184.558594 C 127.464844 184.265625 126.902344 183.945312 126.355469 183.597656 C 125.8125 183.25 125.28125 182.875 124.773438 182.476562 C 124.265625 182.074219 123.777344 181.652344 123.308594 181.203125 C 122.839844 180.753906 122.394531 180.285156 121.972656 179.792969 C 121.550781 179.300781 121.15625 178.792969 120.785156 178.261719 C 120.414062 177.730469 120.066406 177.183594 119.75 176.617188 C 119.433594 176.054688 119.144531 175.476562 118.882812 174.882812 C 118.621094 174.289062 118.390625 173.683594 118.191406 173.070312 C 117.988281 172.453125 117.816406 171.828125 117.675781 171.195312 C 117.539062 170.566406 117.429688 169.925781 117.351562 169.285156 C 117.273438 168.640625 117.226562 167.996094 117.214844 167.347656 C 117.199219 166.699219 117.21875 166.054688 117.265625 165.40625 C 117.316406 164.761719 117.398438 164.121094 117.511719 163.484375 C 117.625 162.84375 117.765625 162.214844 117.941406 161.589844 C 118.117188 160.964844 118.320312 160.351562 118.554688 159.75 C 118.789062 159.144531 119.054688 158.554688 119.347656 157.976562 C 119.640625 157.398438 119.960938 156.835938 120.308594 156.292969 C 120.65625 155.746094 121.03125 155.21875 121.429688 154.707031 C 121.832031 154.199219 122.253906 153.710938 122.703125 153.242188 C 123.152344 152.773438 123.621094 152.328125 124.113281 151.90625 C 124.605469 151.484375 125.113281 151.089844 125.644531 150.71875 C 126.175781 150.347656 126.722656 150.003906 127.289062 149.683594 C 127.851562 149.367188 128.429688 149.078125 129.023438 148.816406 C 129.617188 148.554688 130.222656 148.324219 130.835938 148.125 C 131.453125 147.921875 132.078125 147.75 132.707031 147.613281 L 150.519531 143.667969 Z M 159.074219 182.285156 " fill-opacity="1" fill-rule="nonzero"/><path fill="#ffd60a" d="M 164.671875 160.855469 C 161.855469 148.140625 155.234375 138.78125 149.847656 139.867188 L 146.359375 140.636719 C 145.359375 140.859375 144.386719 141.179688 143.445312 141.59375 C 142.503906 142.007812 141.613281 142.507812 140.773438 143.097656 C 139.929688 143.683594 139.152344 144.351562 138.441406 145.09375 C 137.730469 145.835938 137.101562 146.640625 136.546875 147.503906 C 135.996094 148.371094 135.53125 149.285156 135.160156 150.242188 C 134.785156 151.199219 134.511719 152.183594 134.332031 153.195312 C 134.152344 154.207031 134.074219 155.226562 134.097656 156.253906 C 134.117188 157.28125 134.238281 158.296875 134.460938 159.300781 L 137.941406 175.019531 C 138.164062 176.023438 138.484375 176.996094 138.898438 177.9375 C 139.3125 178.878906 139.8125 179.769531 140.402344 180.613281 C 140.992188 181.457031 141.660156 182.234375 142.402344 182.945312 C 143.144531 183.65625 143.949219 184.289062 144.816406 184.839844 C 145.683594 185.390625 146.597656 185.855469 147.558594 186.226562 C 148.515625 186.601562 149.5 186.875 150.515625 187.054688 C 151.527344 187.230469 152.546875 187.308594 153.574219 187.285156 C 154.605469 187.261719 155.621094 187.140625 156.625 186.914062 L 160.109375 186.140625 C 165.4375 184.847656 167.488281 173.570312 164.671875 160.855469 Z M 164.671875 160.855469 " fill-opacity="1" fill-rule="nonzero"/><path fill="#ffd60a" d="M 113.601562 167.949219 C 114.28125 168.230469 114.789062 168.867188 115.191406 169.523438 C 115.8125 170.519531 116.277344 171.585938 116.585938 172.71875 C 117 174.222656 117.289062 176.039062 118.609375 176.734375 C 119.074219 176.964844 119.5625 177.046875 120.078125 176.984375 C 121.742188 176.820312 123.148438 175.445312 123.707031 173.769531 C 124.265625 172.097656 124.046875 170.1875 123.367188 168.539062 C 122.378906 166.152344 120.148438 164.109375 117.738281 164.332031 C 116.730469 164.46875 115.820312 164.84375 115.007812 165.457031 C 114.425781 165.867188 113.832031 166.449219 113.851562 167.199219 " fill-opacity="1" fill-rule="nonzero"/><path fill="#232323" d="M 205.722656 56.886719 C 203.65625 65.523438 201.574219 74.160156 199.472656 82.800781 C 199.300781 83.507812 200.402344 83.824219 200.566406 83.101562 C 202.59375 74.453125 204.628906 65.804688 206.667969 57.160156 C 206.816406 56.546875 205.871094 56.285156 205.722656 56.898438 Z M 205.722656 56.886719 " fill-opacity="1" fill-rule="nonzero"/><path fill="#232323" d="M 213.421875 78.269531 L 214.3125 76.929688 C 214.6875 76.367188 213.78125 75.847656 213.410156 76.402344 L 212.515625 77.742188 C 212.140625 78.304688 213.046875 78.832031 213.421875 78.269531 Z M 213.421875 78.269531 " fill-opacity="1" fill-rule="nonzero"/><path fill="#232323" d="M 242.550781 109.457031 C 246.535156 107.410156 250.289062 104.71875 254.089844 102.335938 C 257.886719 99.953125 261.75 97.535156 265.566406 95.109375 C 266.21875 94.6875 265.617188 93.644531 264.953125 94.0625 C 261.121094 96.449219 257.308594 98.898438 253.496094 101.320312 C 249.679688 103.746094 245.667969 105.984375 242.097656 108.691406 C 242 108.757812 241.9375 108.847656 241.910156 108.960938 C 241.886719 109.074219 241.902344 109.183594 241.960938 109.285156 C 242.019531 109.386719 242.105469 109.453125 242.21875 109.484375 C 242.328125 109.519531 242.4375 109.507812 242.542969 109.457031 Z M 242.550781 109.457031 " fill-opacity="1" fill-rule="nonzero"/><path fill="#232323" d="M 272.957031 84.34375 L 274.296875 83.898438 C 274.960938 83.675781 274.675781 82.613281 274.003906 82.835938 L 272.664062 83.285156 C 271.980469 83.503906 272.28125 84.570312 272.957031 84.34375 Z M 272.957031 84.34375 " fill-opacity="1" fill-rule="nonzero"/><path fill="#232323" d="M 113.949219 68.957031 C 123.695312 79.003906 133.34375 89.152344 143.15625 99.140625 C 143.746094 99.734375 144.664062 98.816406 144.078125 98.214844 C 134.347656 88.152344 124.449219 78.246094 114.652344 68.246094 C 114.203125 67.785156 113.5 68.492188 113.949219 68.957031 Z M 113.949219 68.957031 " fill-opacity="1" fill-rule="nonzero"/><path fill="#232323" d="M 128.117188 67.429688 C 128.269531 67.417969 128.398438 67.355469 128.5 67.242188 C 128.605469 67.128906 128.65625 66.996094 128.65625 66.84375 C 128.65625 66.691406 128.605469 66.558594 128.5 66.445312 C 128.398438 66.332031 128.269531 66.269531 128.117188 66.257812 C 127.964844 66.269531 127.835938 66.332031 127.730469 66.445312 C 127.625 66.558594 127.574219 66.691406 127.574219 66.84375 C 127.574219 66.996094 127.625 67.128906 127.730469 67.242188 C 127.835938 67.355469 127.964844 67.417969 128.117188 67.429688 Z M 128.117188 67.429688 " fill-opacity="1" fill-rule="nonzero"/><path fill="#232323" d="M 70.417969 129.171875 C 79.605469 130.789062 88.863281 131.585938 98.195312 131.558594 C 99.011719 131.558594 99.011719 130.289062 98.195312 130.292969 C 88.960938 130.402344 79.789062 129.722656 70.671875 128.246094 C 70.0625 128.144531 69.800781 129.078125 70.417969 129.183594 Z M 70.417969 129.171875 " fill-opacity="1" fill-rule="nonzero"/><path fill="#232323" d="M 97.753906 115.078125 C 99.382812 116.441406 101 117.808594 102.667969 119.09375 C 103.238281 119.539062 104.058594 118.769531 103.484375 118.277344 C 101.875 116.914062 100.214844 115.59375 98.5625 114.269531 C 97.996094 113.8125 97.175781 114.609375 97.753906 115.078125 Z M 97.753906 115.078125 " fill-opacity="1" fill-rule="nonzero"/><path fill="#232323" d="M 119.144531 248.265625 C 120.675781 243.667969 122.683594 239.289062 125.167969 235.128906 C 125.558594 234.472656 124.539062 233.882812 124.144531 234.53125 C 121.582031 238.769531 119.566406 243.253906 118.09375 247.980469 C 117.890625 248.644531 118.914062 248.917969 119.117188 248.265625 Z M 119.144531 248.265625 " fill-opacity="1" fill-rule="nonzero"/><path fill="#232323" d="M 176.742188 242.351562 C 177.03125 249.644531 177.261719 256.941406 177.589844 264.234375 C 177.625 264.96875 178.765625 264.972656 178.738281 264.234375 C 178.472656 256.9375 178.105469 249.644531 177.796875 242.351562 C 177.773438 241.667969 176.714844 241.667969 176.742188 242.351562 Z M 176.742188 242.351562 " fill-opacity="1" fill-rule="nonzero"/><path fill="#232323" d="M 225.433594 229.6875 C 227.574219 232.507812 229.984375 235.074219 232.660156 237.390625 C 233.222656 237.871094 234.046875 237.046875 233.480469 236.570312 C 230.824219 234.300781 228.429688 231.785156 226.289062 229.027344 C 225.910156 228.542969 225.050781 229.195312 225.429688 229.6875 Z M 225.433594 229.6875 " fill-opacity="1" fill-rule="nonzero"/><path fill="#232323" d="M 229.21875 154.335938 C 230.480469 160.328125 229.273438 166.03125 226.996094 171.605469 C 226.464844 172.902344 228.632812 173.808594 229.253906 172.558594 C 232.121094 166.808594 232.324219 160.035156 230.980469 153.847656 C 230.726562 152.699219 228.976562 153.1875 229.21875 154.335938 Z M 229.21875 154.335938 " fill-opacity="1" fill-rule="nonzero"/><path fill="#232323" d="M 228.671875 149.902344 C 230.054688 149.902344 230.054688 147.757812 228.671875 147.757812 C 227.289062 147.757812 227.289062 149.902344 228.671875 149.902344 Z M 228.671875 149.902344 " fill-opacity="1" fill-rule="nonzero"/><path fill="#232323" d="M 250.269531 158.109375 C 257.429688 157.898438 264.789062 157.679688 271.644531 160.050781 C 277.304688 162.011719 282.257812 165.636719 286.253906 170.054688 C 290.445312 174.683594 293.527344 180.285156 295.867188 186.027344 C 298.339844 192.117188 300.257812 198.847656 299.527344 205.464844 C 298.078125 218.578125 289.054688 230.125 279.265625 238.335938 C 268.882812 247.054688 256.191406 252.683594 246.441406 262.207031 C 241.464844 267.0625 237.46875 272.882812 235.476562 279.59375 C 234.421875 283.085938 233.933594 286.652344 234.003906 290.296875 C 234.074219 293.941406 234.703125 297.488281 235.894531 300.933594 C 236.464844 302.542969 239.039062 301.863281 238.476562 300.21875 C 237.378906 296.910156 236.824219 293.507812 236.816406 290.019531 C 236.8125 286.527344 237.351562 283.125 238.441406 279.808594 C 240.449219 273.550781 244.425781 268.21875 249.152344 263.746094 C 259.316406 254.117188 272.433594 248.375 282.910156 239.125 C 292.65625 230.53125 301.058594 218.699219 302.480469 205.46875 C 303.183594 198.890625 301.390625 192.148438 299.003906 186.074219 C 296.71875 180.257812 293.777344 174.6875 289.773438 169.863281 C 285.511719 164.722656 280.054688 160.476562 273.792969 158.082031 C 266.292969 155.21875 258.125 155.574219 250.265625 156.035156 C 248.941406 156.113281 248.921875 158.148438 250.265625 158.109375 Z M 250.269531 158.109375 " fill-opacity="1" fill-rule="nonzero"/><path fill="#232323" d="M 217.34375 143.804688 C 219.050781 149.941406 220.691406 156.476562 220.515625 162.898438 C 220.382812 167.886719 219.050781 175.558594 213.757812 177.710938 C 212.070312 178.394531 212.761719 181.167969 214.527344 180.5 C 220.507812 178.25 222.710938 171.101562 223.21875 165.292969 C 223.902344 157.617188 221.566406 150.457031 219 143.339844 C 218.628906 142.316406 217.042969 142.71875 217.34375 143.796875 Z M 217.34375 143.804688 " fill-opacity="1" fill-rule="nonzero"/><path fill="#fffefe" d="M 267.382812 163.023438 C 269.84375 158.226562 275.199219 155.210938 278.523438 150.808594 C 280.199219 148.585938 281.832031 146.125 284.375 144.992188 C 291.039062 142.03125 292.84375 150.535156 291.820312 155.09375 C 293.628906 152.597656 297.542969 151.964844 300.046875 153.769531 C 302.550781 155.574219 303.1875 159.488281 301.386719 161.992188 C 304.875 159.496094 310.253906 161.46875 312.265625 165.261719 C 314.277344 169.058594 313.425781 173.84375 311.242188 177.539062 C 314.042969 178.011719 316.179688 180.578125 316.738281 183.355469 C 318.914062 194.101562 307.566406 201.171875 298.382812 202.109375 C 291.527344 202.8125 284.5625 200.871094 278.570312 197.457031 C 268.492188 191.710938 260.9375 181.640625 258.429688 170.308594 " fill-opacity="1" fill-rule="nonzero"/><path fill="#232323" d="M 256.335938 167.992188 C 256.722656 170.371094 257.300781 172.703125 258.074219 174.988281 C 258.851562 177.273438 259.808594 179.476562 260.949219 181.601562 C 262.089844 183.726562 263.402344 185.742188 264.878906 187.648438 C 266.355469 189.554688 267.980469 191.324219 269.753906 192.960938 C 278.882812 201.402344 292.597656 206.699219 304.804688 202.21875 C 309.535156 200.484375 314.125 197.472656 316.671875 193.011719 C 319.25 188.488281 319.5625 181.671875 315.378906 177.949219 C 314.300781 176.96875 313.050781 176.332031 311.628906 176.042969 L 312.554688 178.320312 C 315.183594 173.773438 316.132812 167.53125 312.617188 163.164062 C 309.855469 159.753906 304.480469 158.1875 300.683594 160.828125 L 302.539062 162.683594 C 304.652344 159.484375 303.835938 154.855469 300.6875 152.640625 C 297.488281 150.382812 292.976562 151.460938 290.691406 154.453125 L 293.039062 155.441406 C 293.878906 151.429688 293.148438 144.996094 288.605469 143.4375 C 285.875 142.496094 282.867188 144.070312 280.941406 145.941406 C 279.703125 147.148438 278.714844 148.578125 277.683594 149.960938 C 276.617188 151.34375 275.441406 152.625 274.152344 153.804688 C 271.335938 156.46875 268.246094 158.988281 266.417969 162.488281 C 265.78125 163.707031 267.617188 164.789062 268.273438 163.570312 C 269.695312 160.914062 271.921875 158.882812 274.132812 156.886719 C 276.410156 154.894531 278.480469 152.703125 280.335938 150.3125 C 281.898438 148.265625 283.894531 145.753906 286.707031 145.597656 C 288.480469 145.5 289.585938 146.902344 290.152344 148.433594 C 290.890625 150.496094 291.035156 152.597656 290.585938 154.742188 C 290.339844 155.863281 291.878906 157.085938 292.726562 155.988281 C 294.222656 154.054688 297.183594 153.300781 299.261719 154.808594 C 301.34375 156.316406 301.597656 159.300781 300.21875 161.289062 C 299.449219 162.398438 300.964844 163.878906 302.074219 163.144531 C 304.828125 161.3125 308.628906 162.585938 310.46875 165.160156 C 312.910156 168.570312 311.832031 173.367188 309.894531 176.726562 C 309.421875 177.539062 309.824219 178.808594 310.820312 179 C 315.933594 180.023438 316.257812 186.75 314.390625 190.59375 C 312.449219 194.636719 308.453125 197.445312 304.351562 199.015625 C 293.234375 203.273438 280.707031 198.605469 272.300781 190.898438 C 270.585938 189.339844 269.019531 187.648438 267.601562 185.824219 C 266.179688 183.996094 264.925781 182.0625 263.835938 180.019531 C 262.75 177.976562 261.84375 175.855469 261.121094 173.660156 C 260.398438 171.460938 259.871094 169.21875 259.535156 166.925781 " fill-opacity="1" fill-rule="nonzero"/><path fill="#232323" d="M 282.785156 164.226562 L 284.675781 163.589844 C 284.921875 163.515625 285.109375 163.367188 285.238281 163.144531 C 285.363281 162.917969 285.394531 162.683594 285.335938 162.433594 C 285.261719 162.183594 285.117188 161.996094 284.890625 161.867188 C 284.667969 161.742188 284.429688 161.710938 284.179688 161.777344 L 282.28125 162.40625 C 282.03125 162.480469 281.84375 162.628906 281.714844 162.855469 C 281.589844 163.082031 281.558594 163.316406 281.621094 163.570312 C 281.695312 163.820312 281.84375 164.007812 282.070312 164.136719 C 282.292969 164.261719 282.53125 164.292969 282.785156 164.226562 Z M 282.785156 164.226562 " fill-opacity="1" fill-rule="nonzero"/><path fill="#232323" d="M 292.132812 176.277344 C 292.558594 176 292.988281 175.730469 293.390625 175.425781 C 293.636719 175.269531 293.804688 175.054688 293.890625 174.777344 C 293.949219 174.566406 293.941406 174.355469 293.875 174.144531 C 293.804688 173.9375 293.679688 173.765625 293.507812 173.632812 C 293.332031 173.496094 293.136719 173.421875 292.914062 173.410156 C 292.695312 173.394531 292.492188 173.445312 292.300781 173.554688 C 291.859375 173.8125 291.449219 174.101562 291.027344 174.386719 C 290.898438 174.460938 290.789062 174.554688 290.699219 174.667969 C 290.605469 174.785156 290.542969 174.914062 290.5 175.054688 C 290.460938 175.199219 290.453125 175.34375 290.472656 175.488281 C 290.492188 175.636719 290.539062 175.773438 290.613281 175.898438 C 290.6875 176.027344 290.78125 176.132812 290.902344 176.222656 C 291.019531 176.3125 291.148438 176.375 291.292969 176.410156 C 291.4375 176.445312 291.582031 176.449219 291.726562 176.429688 C 291.871094 176.40625 292.007812 176.355469 292.132812 176.277344 Z M 292.132812 176.277344 " fill-opacity="1" fill-rule="nonzero"/><path fill="#232323" d="M 300.558594 188.277344 C 301.351562 187.875 302.175781 187.558594 303.039062 187.335938 C 304.15625 187.015625 304 185.117188 302.75 185.226562 C 301.554688 185.339844 300.449219 185.714844 299.433594 186.355469 C 298.207031 187.101562 299.296875 188.96875 300.558594 188.277344 Z M 300.558594 188.277344 " fill-opacity="1" fill-rule="nonzero"/><path fill="#232323" d="M 294.882812 146.882812 C 294.394531 143.6875 294.792969 140.609375 296.082031 137.644531 C 296.765625 136.101562 294.621094 134.730469 293.761719 136.28125 C 292.851562 137.949219 292.324219 139.726562 292.179688 141.621094 C 292.035156 143.515625 292.285156 145.351562 292.933594 147.136719 C 293.292969 148.085938 295.027344 148.066406 294.871094 146.875 Z M 294.882812 146.882812 " fill-opacity="1" fill-rule="nonzero"/><path fill="#fffefe" d="M 106.78125 203.84375 C 103.472656 199.585938 97.652344 197.617188 93.570312 193.90625 C 91.527344 192.03125 89.453125 189.914062 86.753906 189.269531 C 79.65625 187.59375 79.460938 196.285156 81.296875 200.570312 C 79.058594 198.453125 75.09375 198.554688 72.96875 200.792969 C 70.839844 203.03125 70.941406 206.992188 73.171875 209.121094 C 69.28125 207.316406 64.355469 210.25 63.089844 214.351562 C 61.824219 218.449219 63.53125 222.996094 66.371094 226.210938 C 63.710938 227.195312 62.082031 230.109375 62.046875 232.945312 C 61.894531 243.910156 74.355469 248.757812 83.554688 247.984375 C 90.425781 247.40625 96.910156 244.210938 102.164062 239.75 C 111.003906 232.246094 116.566406 220.941406 116.933594 209.34375 " fill-opacity="1" fill-rule="nonzero"/><path fill="#232323" d="M 118.558594 206.683594 C 118.617188 209.097656 118.480469 211.496094 118.140625 213.882812 C 117.800781 216.273438 117.269531 218.617188 116.539062 220.914062 C 115.808594 223.214844 114.894531 225.4375 113.796875 227.585938 C 112.699219 229.734375 111.429688 231.773438 109.988281 233.710938 C 102.578125 243.695312 90.074219 251.441406 77.257812 249.289062 C 72.285156 248.457031 67.214844 246.347656 63.886719 242.429688 C 60.558594 238.511719 58.949219 231.816406 62.371094 227.390625 C 63.242188 226.226562 64.347656 225.371094 65.691406 224.820312 L 65.199219 227.230469 C 61.773438 223.253906 59.6875 217.292969 62.339844 212.351562 C 64.414062 208.480469 69.410156 205.957031 73.628906 207.847656 L 72.144531 210.015625 C 69.480469 207.261719 69.417969 202.5625 72.109375 199.785156 C 74.796875 197.011719 79.46875 197.199219 82.265625 199.71875 L 80.144531 201.125 C 78.574219 197.339844 78.097656 190.894531 82.265625 188.507812 C 84.777344 187.078125 88.019531 188.066406 90.257812 189.550781 C 91.699219 190.503906 92.9375 191.734375 94.207031 192.898438 C 95.507812 194.058594 96.902344 195.101562 98.382812 196.023438 C 101.644531 198.121094 105.148438 200.023438 107.589844 203.125 C 108.441406 204.207031 106.835938 205.609375 105.964844 204.53125 C 104.078125 202.183594 101.511719 200.597656 98.96875 199.042969 C 96.375 197.507812 93.953125 195.742188 91.695312 193.742188 C 89.785156 192.007812 87.355469 189.917969 84.566406 190.289062 C 82.804688 190.519531 81.976562 192.105469 81.707031 193.714844 C 81.359375 195.875 81.605469 197.96875 82.445312 199.992188 C 82.894531 201.046875 81.605469 202.535156 80.570312 201.613281 C 78.742188 199.992188 75.695312 199.796875 73.929688 201.664062 C 72.164062 203.535156 72.464844 206.507812 74.191406 208.214844 C 75.15625 209.167969 73.933594 210.898438 72.710938 210.382812 C 69.664062 209.09375 66.164062 211.066406 64.835938 213.917969 C 63.070312 217.726562 64.996094 222.238281 67.539062 225.167969 C 68.152344 225.878906 67.992188 227.214844 67.046875 227.578125 C 62.21875 229.515625 63.140625 236.195312 65.683594 239.621094 C 68.355469 243.21875 72.785156 245.242188 77.105469 246.03125 C 88.820312 248.15625 100.269531 241.257812 107.113281 232.121094 C 108.507812 230.273438 109.730469 228.324219 110.789062 226.265625 C 111.847656 224.207031 112.722656 222.074219 113.414062 219.867188 C 114.105469 217.660156 114.601562 215.410156 114.90625 213.117188 C 115.210938 210.820312 115.316406 208.519531 115.222656 206.207031 " fill-opacity="1" fill-rule="nonzero"/><path fill="#232323" d="M 78.691406 193.15625 C 78.855469 192.207031 78.917969 191.253906 78.875 190.292969 C 78.832031 189.332031 78.6875 188.386719 78.441406 187.457031 C 78.195312 186.527344 77.851562 185.636719 77.414062 184.78125 C 76.972656 183.925781 76.449219 183.125 75.835938 182.382812 C 74.871094 181.214844 72.878906 182.75 73.726562 184.015625 C 75.59375 186.679688 76.601562 189.636719 76.753906 192.882812 C 76.808594 193.925781 78.488281 194.296875 78.691406 193.144531 Z M 78.691406 193.15625 " fill-opacity="1" fill-rule="nonzero"/><path fill="#232323" d="M 148.957031 157.519531 C 150.300781 162.121094 150.535156 167.28125 149.980469 172.027344 C 149.480469 176.179688 148.527344 181.933594 145.207031 184.832031 C 144.136719 185.765625 145.585938 187.703125 146.742188 186.828125 C 150.546875 183.921875 151.691406 178.015625 152.277344 173.527344 C 153.019531 167.839844 152.296875 162.5 150.636719 157.050781 C 150.296875 155.976562 148.636719 156.429688 148.953125 157.511719 Z M 148.957031 157.519531 " fill-opacity="1" fill-rule="nonzero"/><path fill="#232323" d="M 145.25 151.886719 L 146.429688 153.378906 C 146.808594 153.863281 147.683594 153.808594 148.078125 153.378906 C 148.179688 153.269531 148.261719 153.140625 148.320312 153 C 148.375 152.859375 148.402344 152.710938 148.402344 152.558594 C 148.402344 152.402344 148.375 152.257812 148.320312 152.113281 C 148.261719 151.972656 148.179688 151.84375 148.078125 151.734375 L 146.890625 150.234375 C 146.511719 149.757812 145.636719 149.8125 145.25 150.234375 C 145.144531 150.34375 145.066406 150.472656 145.007812 150.613281 C 144.953125 150.753906 144.925781 150.902344 144.925781 151.054688 C 144.925781 151.207031 144.953125 151.355469 145.007812 151.496094 C 145.066406 151.640625 145.144531 151.765625 145.25 151.878906 Z M 145.25 151.886719 " fill-opacity="1" fill-rule="nonzero"/><path fill="#232323" d="M 344.652344 183.324219 C 347.804688 184.753906 348.714844 188.441406 348.027344 191.589844 C 347.277344 195.054688 345.238281 198.273438 343.253906 201.171875 C 339.3125 206.96875 334.160156 211.71875 328.320312 215.550781 C 326.800781 216.550781 328.167969 218.960938 329.757812 218.007812 C 333.328125 215.859375 336.582031 213.308594 339.523438 210.351562 C 342.460938 207.398438 344.992188 204.128906 347.121094 200.542969 C 349.195312 197.078125 351.28125 193.078125 350.921875 188.910156 C 350.632812 185.589844 348.625 182.582031 345.398438 181.535156 C 344.378906 181.195312 343.625 182.863281 344.648438 183.324219 Z M 344.652344 183.324219 " fill-opacity="1" fill-rule="nonzero"/><path fill="#232323" d="M 89.34375 204.730469 C 90.328125 205.363281 91.550781 205.753906 92.632812 206.195312 C 93.71875 206.632812 94.480469 204.828125 93.433594 204.296875 C 92.386719 203.765625 91.261719 203.160156 90.136719 202.851562 C 89.007812 202.546875 88.371094 204.105469 89.34375 204.730469 Z M 89.34375 204.730469 " fill-opacity="1" fill-rule="nonzero"/><path fill="#232323" d="M 84.289062 218.53125 C 85.019531 218.679688 85.746094 218.835938 86.484375 218.953125 C 86.769531 219.023438 87.039062 218.984375 87.292969 218.839844 C 87.546875 218.695312 87.71875 218.484375 87.800781 218.203125 C 87.839844 218.066406 87.847656 217.925781 87.832031 217.785156 C 87.8125 217.644531 87.769531 217.515625 87.699219 217.390625 C 87.628906 217.265625 87.539062 217.160156 87.425781 217.074219 C 87.316406 216.984375 87.191406 216.921875 87.054688 216.882812 C 86.328125 216.707031 85.601562 216.570312 84.871094 216.429688 C 84.582031 216.359375 84.308594 216.394531 84.046875 216.542969 C 83.789062 216.691406 83.617188 216.90625 83.53125 217.191406 C 83.492188 217.328125 83.484375 217.46875 83.5 217.613281 C 83.519531 217.757812 83.566406 217.890625 83.636719 218.015625 C 83.707031 218.140625 83.800781 218.25 83.914062 218.335938 C 84.027344 218.425781 84.152344 218.492188 84.289062 218.53125 Z M 84.289062 218.53125 " fill-opacity="1" fill-rule="nonzero"/><path fill="#232323" d="M 77.574219 236.503906 L 78.882812 236.503906 C 79.03125 236.511719 79.171875 236.488281 79.3125 236.4375 C 79.449219 236.386719 79.574219 236.3125 79.679688 236.210938 C 79.789062 236.109375 79.871094 235.992188 79.929688 235.855469 C 79.988281 235.71875 80.015625 235.578125 80.015625 235.429688 C 80.015625 235.28125 79.988281 235.140625 79.929688 235.003906 C 79.871094 234.871094 79.789062 234.75 79.679688 234.648438 C 79.574219 234.546875 79.449219 234.472656 79.3125 234.421875 C 79.171875 234.371094 79.03125 234.351562 78.882812 234.359375 L 77.570312 234.359375 C 77.285156 234.375 77.046875 234.484375 76.851562 234.691406 C 76.65625 234.898438 76.558594 235.144531 76.558594 235.425781 C 76.558594 235.710938 76.65625 235.957031 76.851562 236.164062 C 77.046875 236.367188 77.285156 236.480469 77.570312 236.496094 Z M 77.574219 236.503906 " fill-opacity="1" fill-rule="nonzero"/><path fill="#232323" d="M 27.535156 241.527344 C 24.332031 244.195312 23.765625 248.84375 25.113281 252.625 C 26.820312 257.398438 31.128906 260.464844 35.253906 263.019531 C 44.800781 268.960938 55.617188 274.984375 67.265625 272.398438 C 69.199219 271.96875 68.375 269.039062 66.449219 269.4375 C 56.488281 271.484375 47.082031 266.640625 38.808594 261.667969 C 35.105469 259.445312 30.945312 257.179688 28.546875 253.453125 C 26.523438 250.316406 26.160156 245.765625 29.058594 243.054688 C 30.082031 242.09375 28.585938 240.667969 27.535156 241.527344 Z M 27.535156 241.527344 " fill-opacity="1" fill-rule="nonzero"/><path fill="#232323" d="M 100.289062 197.367188 C 100.195312 195.039062 102.152344 192.933594 103.4375 191.15625 C 104.722656 189.378906 106.121094 187.476562 107.621094 185.773438 C 110.480469 182.511719 113.84375 179.722656 118.035156 178.414062 C 119.742188 177.882812 119.019531 175.207031 117.296875 175.730469 C 112.457031 177.207031 108.582031 180.441406 105.363281 184.253906 C 103.773438 186.183594 102.296875 188.195312 100.929688 190.289062 C 99.515625 192.414062 97.742188 194.65625 98.054688 197.355469 C 98.21875 198.746094 100.355469 198.824219 100.296875 197.355469 Z M 100.289062 197.367188 " fill-opacity="1" fill-rule="nonzero"/><path fill="#232323" d="M 116.664062 170.875 C 117.1875 172.433594 117.476562 174.035156 117.539062 175.675781 C 117.597656 177.039062 119.714844 177.039062 119.675781 175.675781 C 119.617188 173.839844 119.269531 172.058594 118.632812 170.332031 C 118.191406 169.113281 116.246094 169.621094 116.664062 170.875 Z M 116.664062 170.875 " fill-opacity="1" fill-rule="nonzero"/><path fill="#232323" d="M 86.726562 249.976562 C 86.941406 252.734375 88.460938 255.636719 89.488281 258.183594 C 90.511719 260.726562 91.574219 263.167969 92.734375 265.605469 C 94.53125 269.375 96.902344 273.449219 101.214844 274.585938 C 102.664062 274.976562 103.128906 272.9375 101.816406 272.398438 C 97.933594 270.804688 95.972656 266.78125 94.257812 263.214844 C 93.175781 260.960938 92.152344 258.679688 91.1875 256.371094 C 90.28125 254.167969 89.6875 251.507812 88.371094 249.523438 C 87.921875 248.84375 86.632812 249.03125 86.707031 249.976562 Z M 86.726562 249.976562 " fill-opacity="1" fill-rule="nonzero"/><path fill="#232323" d="M 108.585938 281.460938 C 113.230469 284.398438 119.015625 285.210938 124.425781 285.058594 C 129.644531 284.914062 134.902344 283.378906 138.839844 279.847656 C 142.515625 276.554688 144.511719 271.507812 143.503906 266.605469 C 143.027344 264.289062 141.828125 261.746094 139.414062 260.992188 C 136.945312 260.21875 134.160156 260.90625 131.789062 261.671875 C 113.632812 267.710938 101.992188 283.972656 93.324219 300.136719 C 87.570312 310.859375 82.972656 322.390625 81.542969 334.539062 C 81.386719 335.878906 83.699219 336.203125 83.910156 334.859375 C 86.703125 317.433594 94.804688 300.9375 104.898438 286.597656 C 109.53125 280.015625 114.972656 274.035156 121.75 269.597656 C 125.636719 267.054688 129.996094 264.824219 134.535156 263.722656 C 135.808594 263.417969 137.429688 263.121094 138.695312 263.609375 C 139.960938 264.097656 140.539062 265.8125 140.828125 267.0625 C 141.082031 268.261719 141.132812 269.46875 140.976562 270.683594 C 140.820312 271.898438 140.46875 273.054688 139.917969 274.148438 C 137.53125 278.921875 132.28125 281.484375 127.199219 282.214844 C 121.527344 283.023438 114.71875 282.511719 109.652344 279.660156 C 108.476562 279 107.464844 280.742188 108.597656 281.460938 Z M 108.585938 281.460938 " fill-opacity="1" fill-rule="nonzero"/><path fill="#232323" d="M 281.097656 260.445312 C 285.234375 259.316406 289.125 257.617188 292.765625 255.355469 C 296.410156 253.09375 299.65625 250.355469 302.503906 247.148438 C 303.078125 246.503906 302.128906 245.546875 301.546875 246.195312 C 298.773438 249.3125 295.621094 251.984375 292.089844 254.214844 C 288.5625 256.441406 284.792969 258.140625 280.78125 259.304688 C 280.632812 259.351562 280.523438 259.445312 280.449219 259.585938 C 280.378906 259.722656 280.363281 259.867188 280.402344 260.015625 C 280.445312 260.167969 280.53125 260.28125 280.667969 260.363281 C 280.800781 260.441406 280.945312 260.464844 281.097656 260.433594 Z M 281.097656 260.445312 " fill-opacity="1" fill-rule="nonzero"/><path fill="#232323" d="M 294.183594 264.253906 L 297.445312 261.808594 C 298.054688 261.351562 297.445312 260.308594 296.839844 260.785156 L 293.585938 263.234375 C 292.976562 263.691406 293.585938 264.734375 294.191406 264.257812 Z M 294.183594 264.253906 " fill-opacity="1" fill-rule="nonzero"/><path fill="#232323" d="M 113.945312 305.796875 C 116.613281 306.441406 119.3125 306.628906 122.046875 306.355469 C 124.777344 306.085938 127.386719 305.371094 129.878906 304.214844 C 130.621094 303.875 129.972656 302.777344 129.234375 303.117188 C 126.890625 304.207031 124.433594 304.890625 121.867188 305.167969 C 119.296875 305.445312 116.753906 305.308594 114.230469 304.75 C 113.550781 304.597656 113.261719 305.632812 113.945312 305.796875 Z M 113.945312 305.796875 " fill-opacity="1" fill-rule="nonzero"/><path fill="#232323" d="M 119.800781 317.246094 C 121.074219 317.273438 122.308594 317.0625 123.503906 316.609375 C 124.695312 316.15625 125.761719 315.492188 126.695312 314.625 C 127.191406 314.164062 126.46875 313.46875 125.960938 313.890625 C 125.097656 314.609375 124.136719 315.160156 123.074219 315.535156 C 122.015625 315.914062 120.925781 316.09375 119.800781 316.078125 C 119.050781 316.078125 119.050781 317.234375 119.800781 317.246094 Z M 119.800781 317.246094 " fill-opacity="1" fill-rule="nonzero"/></svg>