<?xml version="1.0" encoding="UTF-8"?> <svg xmlns="http://www.w3.org/2000/svg" xmlns:xlink="http://www.w3.org/1999/xlink" version="1.1" id="Capa_1" x="0px" y="0px" viewBox="0 0 557.4 214.7" style="enable-background:new 0 0 557.4 214.7;" xml:space="preserve"> <style type="text/css"> .st0{fill:#4B4B4A;} </style> <g> <path class="st0" d="M543.2,77.9l8.7-9.3c-11.3-10.6-23.5-17.9-43.9-17.9c-1.3,0-2.5,0.1-3.8,0.1V9.5h-4.8v198.8h4.8v-41.2 c0.9,0,1.8,0.1,2.7,0.1c20.4,0,33.3-7.9,45.1-19.8l-8.4-8.2c-10.8,10.3-20.9,16.3-36.4,16.3c-1,0-2,0-3-0.1V62.6 c1.2-0.1,2.4-0.2,3.6-0.2C523.1,62.4,533.8,68.8,543.2,77.9 M401.5,62.7h37.8V51h-88.5v11.8h37.8v101.4h12.9V62.7z M288.8,155.2 V62.7c1.4-0.2,2.8-0.3,4.3-0.3c15.3,0,25.9,6.4,35.4,15.5l8.7-9.3c-11.3-10.6-23.5-17.9-43.9-17.9c-1.5,0-3,0.1-4.5,0.2V9.5H284 v198.8h4.8v-41.3c1.1,0.1,2.2,0.1,3.3,0.1c20.4,0,33.3-7.9,45.1-19.8l-8.4-8.2c-10.8,10.3-20.9,16.3-36.4,16.3 C291.2,155.4,290,155.3,288.8,155.2 M252.9,122.1L252.9,122.1c0-5.8-4.6-10.4-10.8-10.4c-6.2,0-10.8,4.7-10.8,10.4v0.1 c0,5.8,4.6,10.4,10.8,10.4C248.3,132.6,252.9,127.9,252.9,122.1 M247.3,122.2c0,2.9-2,5.4-5.1,5.4c-3,0-5.1-2.5-5.1-5.4v-0.1 c0-2.9,2-5.4,5.1-5.4C245.2,116.7,247.3,119.2,247.3,122.2L247.3,122.2z M216.7,122.1L216.7,122.1c0-3,2-5.4,4.8-5.4 c1.9,0,3.2,0.9,4.4,2.4l4.2-3.2c-1.8-2.5-4.4-4.2-8.5-4.2c-6.1,0-10.6,4.6-10.6,10.4v0.1c0,6,4.6,10.4,10.4,10.4 c4.4,0,7-1.9,8.9-4.5l-4.2-3c-1.2,1.5-2.4,2.4-4.5,2.4C218.6,127.5,216.7,125.1,216.7,122.1 M202.4,132.2h5.6v-20.1h-5.6V132.2z M190.4,132.6c3.6,0,6.6-1.3,8.7-3.1v-9h-9.2v4.1h4v2.4c-0.8,0.5-1.9,0.8-3.2,0.8c-3.2,0-5.5-2.3-5.5-5.6v-0.1 c0-3.1,2.2-5.5,5.1-5.5c2,0,3.4,0.7,4.8,1.9l3.3-3.9c-2.1-1.8-4.6-2.9-8.2-2.9c-6.2,0-10.8,4.6-10.8,10.4v0.1 C179.5,128.3,184.2,132.6,190.4,132.6 M177.3,122.1L177.3,122.1c0-5.8-4.6-10.4-10.8-10.4s-10.8,4.7-10.8,10.4v0.1 c0,5.8,4.6,10.4,10.8,10.4C172.6,132.6,177.3,127.9,177.3,122.1 M171.6,122.2c0,2.9-2,5.4-5.1,5.4c-3,0-5.1-2.5-5.1-5.4v-0.1 c0-2.9,2-5.4,5.1-5.4C169.5,116.7,171.6,119.2,171.6,122.2L171.6,122.2z M168.4,110.7l4.2-3.7l-5.1-1.6l-3,5.3H168.4z M156.7,92.9 c0-5.7-4.3-10.4-10.5-10.4c-6.2,0-10.5,4.7-10.5,10.4c0,5.7,4.3,10.4,10.5,10.4C152.4,103.3,156.7,98.6,156.7,92.9 M153,93 c0,3.9-2.8,7.1-6.8,7.1s-6.8-3.2-6.8-7.2c0-3.9,2.8-7.1,6.8-7.1S153,89,153,93 M132.9,103l-5.4-7.6c2.8-0.8,4.8-2.8,4.8-6.1 c0-3.9-2.8-6.4-7.5-6.4h-9V103h3.5v-7h4.4l4.9,7H132.9z M124.6,92.9h-5.2v-6.7h5.1c2.6,0,4.2,1.1,4.2,3.4 C128.7,91.5,127.1,92.9,124.6,92.9 M114.1,122.1L114.1,122.1c0,5.8,4.6,10.4,10.8,10.4c6.2,0,10.8-4.7,10.8-10.4v-0.1 c0-5.8-4.6-10.4-10.8-10.4C118.8,111.7,114.1,116.3,114.1,122.1 M119.8,122.1c0-2.9,2-5.4,5.1-5.4c3.1,0,5.2,2.5,5.2,5.4v0.1 c0,2.9-2,5.4-5.1,5.4C121.9,127.5,119.8,125,119.8,122.1L119.8,122.1z M105.8,86.2h6.4v-3.3H95.8v3.3h6.4V103h3.6V86.2z M97.5,112.1h-5.2v20.1h5.5v-11l8.6,11h4.9v-20.1h-5.5v10.6L97.5,112.1z M89.2,103h3V82.9h-3.5v13.9L77.9,82.9h-3.3V103h3.5V88.7 L89.2,103z M81.2,111.7c-6.1,0-10.6,4.6-10.6,10.4v0.1c0,6,4.6,10.4,10.4,10.4c4.4,0,7-1.9,8.9-4.5l-4.2-3 c-1.2,1.5-2.4,2.4-4.5,2.4c-2.8,0-4.8-2.4-4.8-5.4v-0.1c0-2.9,2-5.3,4.8-5.3c1.9,0,3.2,0.9,4.4,2.4l4.2-3.2 C88,113.4,85.3,111.7,81.2,111.7 M55.4,103h15v-3.2H58.9v-5.4H69v-3.2H58.9v-5.2h11.4v-3.2H55.4V103z M68.5,112.1H52.3v20.1h16.3 v-4.7H57.9v-3.2h9.6v-4.4h-9.6v-3h10.6V112.1z M37,92.9c0-4,2.8-7.1,6.6-7.1c2.3,0,4,1,5.6,2.5l2.3-2.6c-1.9-1.8-4.2-3.1-7.9-3.1 c-6.1,0-10.4,4.7-10.4,10.4c0,5.8,4.4,10.4,10.2,10.4c3.8,0,6.1-1.4,8.1-3.6l-2.3-2.3c-1.7,1.6-3.3,2.6-5.8,2.6 C39.8,100.1,37,96.9,37,92.9 M49.9,112.1H32.3v4.9h6v15.2h5.6V117h6V112.1z M7.8,208.3h4.8V9.5H7.8V208.3z M138.7,132.2h15.3v-4.9 h-9.7v-15.2h-5.6V132.2z"></path> </g> </svg> 